<?xml version="1.0" standalone="no"?>
<!DOCTYPE svg PUBLIC "-//W3C//DTD SVG 1.1//EN" "http://www.w3.org/Graphics/SVG/1.1/DTD/svg11.dtd" >
<svg xmlns="http://www.w3.org/2000/svg">
<metadata>Generated by IcoMoon</metadata>
<defs>
<font id="icomoon" horiz-adv-x="1024">
<font-face units-per-em="1024" ascent="960" descent="-64" />
<missing-glyph horiz-adv-x="1024" />
<glyph unicode="&#x20;" horiz-adv-x="512" d="" />
<glyph unicode="&#xe900;" horiz-adv-x="1117" d="M515.724 680.727c13.369 0 24.204 8.751 24.204 19.549v58.647h48.407v-58.647c0-10.798 10.835-19.549 24.204-19.549s24.204 8.751 24.204 19.549v156.393c0 10.798-10.835 19.549-24.204 19.549s-24.204-8.751-24.204-19.549v-58.647h-48.407v58.647c0 10.798-10.835 19.549-24.204 19.549s-24.204-8.751-24.204-19.549v-156.393c0-10.798 10.835-19.549 24.204-19.549zM426.356 401.455c-13.369 0-24.204 8.855-24.204 19.782v118.691c0 10.926 10.835 19.782 24.204 19.782h96.815c13.369 0 24.204-8.855 24.204-19.782v-118.691c0-10.926-10.835-19.782-24.204-19.782h-96.815zM450.56 520.145v-79.127h48.407v79.127h-48.407zM794.996 401.455c-13.369 0-24.204 8.855-24.204 19.782v118.691c0 10.926 10.835 19.782 24.204 19.782h96.815c13.369 0 24.204-8.855 24.204-19.782v-118.691c0-10.926-10.835-19.782-24.204-19.782h-96.815zM819.2 520.145v-79.127h48.407v79.127h-48.407zM616.262 401.455c-13.369 0-24.204 8.855-24.204 19.782v118.691c0 10.926 10.835 19.782 24.204 19.782h96.815c13.369 0 24.204-8.855 24.204-19.782v-118.691c0-10.926-10.835-19.782-24.204-19.782h-96.815zM640.465 520.145v-79.127h48.407v79.127h-48.407zM236.451 401.455c-13.369 0-24.204 8.855-24.204 19.782v118.691c0 10.926 10.835 19.782 24.204 19.782h96.815c13.369 0 24.204-8.855 24.204-19.782v-118.691c0-10.926-10.835-19.782-24.204-19.782h-96.815zM260.655 520.145v-79.127h48.407v79.127h-48.407zM236.451 606.255c-13.369 0-24.204 8.855-24.204 19.782v118.691c0 10.926 10.835 19.782 24.204 19.782h96.815c13.369 0 24.204-8.855 24.204-19.782v-118.691c0-10.926-10.835-19.782-24.204-19.782h-96.815zM260.655 724.945v-79.127h48.407v79.127h-48.407zM794.996 606.255c-13.369 0-24.204 8.855-24.204 19.782v118.691c0 10.926 10.835 19.782 24.204 19.782h96.815c13.369 0 24.204-8.855 24.204-19.782v-118.691c0-10.926-10.835-19.782-24.204-19.782h-96.815zM819.2 724.945v-79.127h48.407v79.127h-48.407z" />
<glyph unicode="&#xe901;" horiz-adv-x="1117" d="M1092.806-24h-24.285v20c0 26.070-20.3 48.305-48.569 56.563v747.438h24.285c13.413 0 24.285 8.953 24.285 20v40c0 33.086-32.68 60-72.854 60h-267.13v20c0 11.047-10.871 20-24.285 20h-291.415c-13.413 0-24.285-8.953-24.285-20v-20h-267.13c-40.174 0-72.854-26.914-72.854-60v-40c0-11.047 10.871-20 24.285-20h24.285v-747.438c-28.269-8.258-48.569-30.492-48.569-56.563v-20h-24.285c-13.413 0-24.285-8.953-24.285-20s10.871-20 24.285-20h1068.522c13.413 0 24.285 8.953 24.285 20s-10.871 20-24.285 20zM995.668 880c13.394 0 24.285-8.969 24.285-20v-20h-291.415v40h267.13zM437.123 920h242.846v-280h-242.846v280zM97.138 860c0 11.031 10.89 20 24.285 20h267.13v-40h-291.415v20zM388.553 800v-180c0-11.047 10.871-20 24.285-20h291.415c13.413 0 24.285 8.953 24.285 20v180h242.846v-744h-97.138v184h24.285c13.413 0 24.285 8.953 24.285 20v80c0 11.047-10.871 20-24.285 20h-242.846c-13.413 0-24.285-8.953-24.285-20s10.871-20 24.285-20h218.561v-40h-631.399v40h218.561c13.413 0 24.285 8.953 24.285 20s-10.871 20-24.285 20h-242.846c-13.413 0-24.285-8.953-24.285-20v-80c0-11.047 10.871-20 24.285-20h24.285v-184h-97.138v744h242.846zM777.107 56v184h48.569v-184h-48.569zM582.83 56v184h145.708v-184h-145.708zM388.553 56v184h145.708v-184h-145.708zM291.415 56v184h48.569v-184h-48.569zM97.138-4c0 11.031 10.89 20 24.285 20h874.245c13.394 0 24.285-8.969 24.285-20v-20h-922.814v20z" />
<glyph unicode="&#xe902;" glyph-name="next" d="M778.935 484.549l-460.488 460.335c-20.206 20.155-52.943 20.155-73.2 0-20.206-20.155-20.206-52.892 0-73.047l423.963-423.81-423.912-423.81c-20.206-20.155-20.206-52.892 0-73.098 20.206-20.155 52.994-20.155 73.2 0l460.488 460.335c19.9 19.947 19.9 53.198-0.051 73.093z" />
<glyph unicode="&#xe903;" glyph-name="prev" d="M245.065 411.451l460.488-460.335c20.206-20.155 52.943-20.155 73.2 0 20.206 20.155 20.206 52.892 0 73.047l-423.963 423.81 423.912 423.81c20.206 20.155 20.206 52.892 0 73.098-20.206 20.155-52.994 20.155-73.2 0l-460.488-460.335c-19.9-19.947-19.9-53.198 0.051-73.093z" />
<glyph unicode="&#xe904;" glyph-name="Arrow" horiz-adv-x="1408" d="M127.818 762.464l468.717-724.382c38.404-59.351 117.65-76.333 177.001-37.929 15.18 9.822 28.107 22.749 37.929 37.929l468.717 724.382c38.404 59.351 21.422 138.597-37.929 177.001-20.715 13.404-44.863 20.535-69.536 20.535h-937.435c-70.692 0-128-57.308-128-128 0-24.673 7.131-48.821 20.535-69.536z" />
<glyph unicode="&#xe905;" glyph-name="feature1" horiz-adv-x="1100" d="M1047.405 210.17h-55.1c2.627 6.253 4.080 13.118 4.080 20.31v40.678c0 29.061-23.672 52.698-52.775 52.698-24.965 0-45.934-17.384-51.39-40.67h-54.689v29.237c0 17.804-14.505 32.279-32.326 32.279h-317.95c-7.832 0-15.026-2.8-20.625-7.443l-38.782 5.071c-11.786 1.526-23.177-0.972-32.788-6.404-3.752 48.356-44.339 86.57-93.705 86.57-51.843 0-94.024-42.12-94.024-93.888 0-23.679 8.839-45.314 23.378-61.852-21.238-1.567-38.043-19.287-38.043-40.888v-6.84c0-3.043 0.361-6.002 0.991-8.852h-5.314c-7.311 0-14.279-1.609-20.616-4.501v266.534c0 8.893-7.219 16.094-16.117 16.094-8.906 0-16.125-7.2-16.125-16.094v-504.024h-65.517v823.978c0 65.473 53.337 118.741 118.905 118.741h198.5v-65.431h-198.5c-29.43 0-53.388-23.914-53.388-53.31v-244.841c0-8.893 7.219-16.094 16.125-16.094 8.898 0 16.117 7.2 16.117 16.094v244.841c0 11.643 9.486 21.123 21.145 21.123h198.533c0.353-8.583 7.404-15.431 16.083-15.431s15.731 6.848 16.083 15.431h20.348v-79.873c0-25.021 20.381-45.381 45.438-45.381h4.004v-16.32c0-19.262 15.689-34.928 34.971-34.928h28.415v-7.091c0-23 18.744-41.718 41.778-41.718s41.778 18.717 41.778 41.718v7.091h28.415c19.282 0 34.971 15.666 34.971 34.928v16.32h3.996c25.057 0 45.447 20.36 45.447 45.381v81.843c28.18 7.1 49.107 32.615 49.107 62.933 0 35.783-29.162 64.903-64.997 64.903h-101.109c-8.906 0-16.117-7.209-16.117-16.094 0-8.893 7.211-16.094 16.117-16.094h101.109c18.056 0 32.754-14.677 32.754-32.715s-14.698-32.715-32.754-32.715h-0.227c-13.968 0-286.346 0-313.409 0v65.431h137.314c8.898 0 16.117 7.2 16.117 16.094s-7.219 16.094-16.117 16.094h-137.314v0.813c0 8.893-7.219 16.094-16.117 16.094-8.906 0-16.117-7.2-16.117-16.094v-0.813h-198.5c-83.338 0-151.139-67.702-151.139-150.928v-823.978h-21.615c-8.906 0-16.117-7.209-16.117-16.094 0-8.893 7.211-16.094 16.117-16.094h1068.021c8.906 0 16.117 7.2 16.117 16.094 0 8.885-7.211 16.094-16.117 16.094h-246.607v54.224h224.102c21.296 0 38.622 17.301 38.622 38.566 0 47.661 0 69.010 0 92.497 0 31.265-23.705 56.697-52.85 56.697zM604.069 629.695c0-5.247-4.281-9.522-9.544-9.522s-9.544 4.275-9.544 9.522v7.091h19.089v-7.091zM667.455 671.714c0-1.458-1.276-2.741-2.737-2.741-165.074 0 24.73 0-140.378 0-1.461 0-2.745 1.282-2.745 2.741v16.32h145.867v-16.32h-0.008zM472.153 813.288h244.744v-79.873c0-7.276-5.918-13.193-13.204-13.193-22.211 0-194.898 0-218.327 0-7.286 0-13.213 5.918-13.213 13.193v79.873zM837.531 251h69.421c8.898 0 16.117 7.2 16.117 16.094v4.065c0 11.316 9.217 20.511 20.541 20.511s20.541-9.195 20.541-20.511v-40.67c0-10.385-7.773-18.969-17.804-20.31h-108.815v40.821zM805.205 312.516l0.084-0.092-0.084-201.263-318.034 0.084v89.437l51.264-19.304c5.968-2.255 12.239-3.395 18.627-3.395h171.075c29.103 0 52.775 23.646 52.775 52.707s-23.672 52.698-52.775 52.698h-161.456l-77.32 29.128h315.843zM401.792 289.18c3.987 10.553 15.865 15.943 26.467 11.945 49.476-18.633 29.355-11.056 129.792-48.893 1.822-0.679 3.752-1.031 5.691-1.031h164.394c11.324 0 20.541-9.204 20.541-20.511s-9.209-20.519-20.541-20.519h-171.075c-2.485 0-4.927 0.444-7.253 1.324-33.199 12.506-117.873 44.4-136.046 51.248-10.745 4.049-15.89 16.060-11.97 26.437zM454.928 212.827v-2.657h-30.606c0.63 2.858 0.991 5.817 0.991 8.852v4.962l29.615-11.157zM301.355 390.302c34.064 0 61.782-27.669 61.782-61.692s-27.718-61.692-61.782-61.692c-34.072 0-61.782 27.669-61.782 61.692s27.71 61.692 61.782 61.692zM224.9 225.87c0 4.803 4.063 8.852 8.864 8.852h150.442c4.81 0 8.864-4.049 8.864-8.852v-6.84c0-4.803-4.054-8.852-8.864-8.852h-150.442c-4.802 0-8.864 4.049-8.864 8.852v6.84zM167.726 153.465c0 13.52 9.251 24.518 20.616 24.518h266.586v-24.543l-287.202 0.025zM402.85-31.813h-235.124v54.224h235.124v-54.224zM805.289-31.813h-370.205v54.224h370.205v-54.224zM1068.021 60.977c0-3.52-2.871-6.379-6.388-6.379-30.412 0-855.629 0-893.907 0v66.646h287.202v-10c0-17.795 14.505-32.279 32.326-32.279h317.95c17.821 0 32.326 14.484 32.326 32.279v10h230.49v-60.267zM1068.021 153.432h-230.49v24.35c208.43 0 12.768 0.201 209.874 0.201 11.366 0 20.616-10.997 20.616-24.518v-0.034zM637.085 535.149h-75.873c-9.135 0-16.532 7.311-16.532 16.34 0 9.021 7.396 16.34 16.532 16.34h75.873c9.135 0 16.532-7.319 16.532-16.34 0-9.030-7.396-16.34-16.532-16.34zM522.894 475.234c0 9.021 7.116 16.34 15.887 16.34 21.34 0 88.098 0 109.843 0 8.779 0 15.887-7.311 15.887-16.34s-7.108-16.34-15.887-16.34h-109.843c-8.779 0-15.887 7.311-15.887 16.34zM501.106 420.766c0 9.030 7.392 16.34 16.522 16.34h152.148c9.121 0 16.522-7.311 16.522-16.34s-7.4-16.34-16.522-16.34h-152.148c-9.13 0-16.522 7.311-16.522 16.34z" />
<glyph unicode="&#xe906;" glyph-name="feature2" horiz-adv-x="991" d="M957.521 104.672h-17.056v105.242c0 8.281-6.815 15-15.232 15s-15.232-6.719-15.232-15v-105.242h-206.319c0 5.727 0 275.718 0 281.859 0 6.687 5.529 12.133 12.32 12.133h181.678c6.791 0 12.32-5.445 12.32-12.133v-106.617c0-8.281 6.815-15 15.232-15 8.409 0 15.232 6.719 15.232 15v106.617c0 23.234-19.19 42.133-42.784 42.133h-28.385v59.359c0 59.141-26.917 114.226-73.834 151.133l-45.719 35.961 1.047 2.93c5.974 16.609-2.848 34.812-19.714 40.695l-24.053 8.391 27.528 76.578c3.023 8.406 2.539 17.461-1.365 25.508-1.991 4.125-4.776 7.711-8.147 10.648l19.222 53.461 0.635-0.227c1.682-0.586 3.403-0.859 5.085-0.859 6.275 0 12.146 3.844 14.359 10 2.808 7.805-1.341 16.375-9.274 19.148-9.385 3.266-96.611 33.68-108.28 37.75-7.933 2.758-16.636-1.328-19.444-9.141-2.808-7.805 1.349-16.375 9.274-19.148l0.539-0.187-18.405-51.203c-17.485 5.805-36.588-3.273-42.776-20.469l-36.643-101.953c-50.788 83.297-143.408 139.164-249.047 139.164-160.060 0-290.284-128.242-290.284-285.875 0-143.578 108.978-265.484 253.49-283.578 0.651-0.078 1.301-0.117 1.936-0.117 7.56 0 14.121 5.531 15.097 13.109 1.063 8.219-4.847 15.727-13.193 16.773-129.335 16.187-226.858 125.304-226.858 253.812 0 141.086 116.555 255.867 259.812 255.867 142.718 0 259.82-114.187 259.82-255.867 0-127.562-96.634-236.867-225.604-253.64-8.338-1.086-14.208-8.625-13.106-16.836s8.758-13.984 17.096-12.906c36.564 4.758 70.836 16.203 101.624 32.961 3.784-8.719 10.718-14.82 19.143-17.758l53.597-18.687c17.088-5.945 35.739 2.859 41.768 19.625l6.188 17.203c7.18-1.211 14.399 2.805 16.914 9.789 2.507 6.984-0.563 14.562-6.902 18.070l36.85 102.523c0.127 0 0.246-0.016 0.365-0.016 13.954 0 27.060 8.562 31.979 22.242l18.746 52.141 24.046-8.383c9.060-3.156 19.151-2.312 27.83 2.945l18.5-14.555c17.707-13.922 27.861-34.711 27.861-57.023v-59.359h-30.995c-23.593 0-42.784-18.898-42.784-42.133v-126.617c-1.555 0-287.674 0-292.092 0-8.409 0-15.232-6.711-15.232-15s6.823-15 15.232-15h6.069v-35.805c0-18.492 15.271-33.531 34.049-33.531h153.087l44.981-55.906h-243.034c-18.445 0-33.454-14.781-33.454-32.937v-33.461c0-18.164 15.010-32.937 33.454-32.937h23.855v-18.258c0-28.164 23.268-51.078 51.867-51.078h429.797c28.599 0 51.867 22.914 51.867 51.078v18.258h23.855c18.445 0 33.446 14.773 33.446 32.937v33.461c0.008 18.156-15.002 32.937-33.446 32.937zM665.873 920.655l49.67-17.32-18.397-51.18-49.67 17.312 18.397 51.187zM515.904 353.101c-0.428-1.187-1.722-1.758-2.88-1.359l-53.597 18.687c-1.182 0.414-1.793 1.68-1.372 2.836l1.88 5.242c3.959 2.82 8.282 6.125 11.971 9.055l50.106-17.469-6.109-16.992zM532.175 398.374l-34.668 12.086c26.14 26.352 47.425 58.109 61.49 91.789 5.752-2.008 3.633-1.266 9.345-3.258l-36.167-100.617zM601.289 522.905c-0.627-1.75-2.586-2.672-4.371-2.055-21.293 7.43-16.684 5.82-27.869 9.719 7.473 25.25 11.519 52.687 11.519 79.766 0 37.781-7.505 74.898-22.229 109.672l46.362 128.969c0.635 1.773 2.594 2.672 4.371 2.055 14.034-4.891 82.156-28.641 94.675-33.008 1.761-0.609 2.729-2.523 2.086-4.305-2.911-8.094-91.843-255.5-104.544-290.812zM685.373 585.999c-0.413-0.992-1.468-1.391-2.396-1.062l-24.053 8.383c16.041 44.617 36.572 101.734 37.937 105.523l24.053-8.383c1-0.352 1.515-1.422 1.158-2.406-0.127-0.352-36.548-101.711-36.699-102.055zM738.153 568.491l-20.848 16.391 21.674 60.297 37.469-29.469c39.65-31.18 62.387-77.719 62.387-127.687v-59.359h-61.371v59.359c0 31.492-14.327 60.82-39.309 80.469zM566.462 190.578h-145.225c-1.967 0-3.578 1.586-3.578 3.531v35.805h148.803v-39.336zM596.934 180.804v49.109h76.286v-125.242h-15.041l-61.244 76.133zM903.203-12.922c0-11.617-9.599-21.078-21.404-21.078h-429.797c-11.797 0-21.404 9.461-21.404 21.078v18.258h472.605v-18.258zM960.504 38.273c0-1.625-1.333-2.937-2.983-2.937-6.981 0-568.374 0-581.242 0-1.65 0-2.983 1.312-2.983 2.937v33.461c0 1.617 1.333 2.93 2.983 2.93h581.242c1.65 0 2.983-1.312 2.983-2.93v-33.461zM170.667 593.516c21.248 0 38.538-16.926 38.538-37.726s-17.29-37.726-38.538-37.726c-21.248 0-38.538 16.926-38.538 37.726s17.29 37.726 38.538 37.726zM170.667 547.066c4.915 0 8.911 3.912 8.911 8.724s-3.996 8.724-8.911 8.724c-4.915 0-8.911-3.912-8.911-8.724s3.996-8.724 8.911-8.724zM517.505 615.070c0-124.809-103.729-226.354-231.23-226.354-127.493 0-231.222 101.545-231.222 226.354 0 124.817 103.729 226.362 231.222 226.362 127.501 0 231.23-101.545 231.23-226.362zM286.276 410.274c109.29 0 198.197 89.454 198.197 199.407 0 109.961-88.908 199.414-198.197 199.414-109.282 0-198.19-89.454-198.19-199.414 0-109.953 88.908-199.407 198.19-199.407zM286.28 593.516c36.423 0 66.065-29.010 66.065-64.674 0-35.656-29.642-64.674-66.065-64.674-36.43 0-66.065 29.018-66.065 64.674 0 35.664 29.634 64.674 66.065 64.674zM286.28 494.058c19.594 0 35.54 15.602 35.54 34.792 0 19.182-15.946 34.784-35.54 34.784-19.602 0-35.54-15.602-35.54-34.784 0-19.19 15.938-34.792 35.54-34.792zM429.419 647.407c0-23.771-19.763-43.112-44.043-43.112s-44.043 19.341-44.043 43.112c0 23.779 19.763 43.12 44.043 43.12s44.043-19.341 44.043-43.12zM385.376 634.194c7.444 0 13.496 5.933 13.496 13.213 0 7.288-6.052 13.221-13.496 13.221s-13.496-5.933-13.496-13.221c0-7.28 6.052-13.213 13.496-13.213zM247.742 615.074c-39.468 0-71.57 31.427-71.57 70.063s32.102 70.063 71.57 70.063c39.46 0 71.57-31.427 71.57-70.063 0-38.629-32.102-70.063-71.57-70.063zM247.742 725.994c-23.012 0-41.736-18.33-41.736-40.857s18.724-40.857 41.736-40.857c23.012 0 41.736 18.33 41.736 40.857s-18.724 40.857-41.736 40.857zM389.968 567.18c6.506 6.371 17.055 6.371 23.562 0s6.506-16.692-0.009-23.063l-10.723-10.499c-6.498-6.363-17.038-6.371-23.553 0-6.506 6.371-6.506 16.701 0 23.063l10.723 10.499z" />
<glyph unicode="&#xe907;" glyph-name="feature3" horiz-adv-x="770" d="M707.999 333.588c8.177 0 14.798 6.697 14.798 14.96v244.369h8.462c21.549 0 39.090 17.724 39.090 39.498v16.112c0 21.774-17.541 39.49-39.090 39.49h-274.609v46.701c22.52 2.391 40.131 21.688 40.131 45.066v134.901c0 24.982-20.123 45.315-44.847 45.315h-133.509c-24.732 0-44.847-20.333-44.847-45.315v-134.901c0-23.378 17.611-42.675 40.131-45.066v-46.701h-274.617c-21.557 0-39.090-17.716-39.090-39.49v-16.112c0-21.774 17.533-39.498 39.090-39.498h8.455v-558.529h-8.455c-21.557 0-39.090-17.716-39.090-39.498v-16.112c0-21.774 17.533-39.49 39.090-39.49h311.557c8.169 0 14.797 6.689 14.797 14.952s-6.628 14.952-14.797 14.952h-311.557c-5.148 0-9.495 4.392-9.495 9.586v16.112c0 5.194 4.347 9.586 9.495 9.586h692.168c5.141 0 9.487-4.384 9.487-9.586v-16.112c0-5.194-4.339-9.586-9.487-9.586h-311.557c-8.169 0-14.797-6.689-14.797-14.952s6.628-14.952 14.797-14.952h311.557c21.549 0 39.090 17.716 39.090 39.49v16.112c0 21.781-17.541 39.498-39.090 39.498h-8.462v244.377c0 8.262-6.62 14.952-14.798 14.952-8.169 0-14.797-6.689-14.797-14.952v-244.377h-143.158v144.464c19.691 2.009 35.121 18.861 35.121 39.288v16.112c0 21.774-17.541 39.49-39.090 39.49h-321.799c-21.549 0-39.090-17.716-39.090-39.49v-16.112c0-20.426 15.429-37.278 35.129-39.288v-144.464h-143.166v558.529h616.062v-244.369c-0.008-8.262 6.62-14.96 14.79-14.96zM365.916 35.582h-125.182v144.44h125.182v-144.44zM529.615 35.582h-125.182v144.44h125.182v-144.44zM221.475 216.759v13.191c0 4.253 4.291 7.848 9.383 7.848h318.261c5.084 0 9.383-3.596 9.383-7.848v-13.191c0-4.253-4.291-7.848-9.383-7.848-37.502 0-279.38 0-318.261 0-5.084 0-9.383 3.596-9.383 7.848zM298.51 773.902v141.092c0 8.886 7.233 16.118 16.118 16.118h141.092c8.894 0 16.118-7.233 16.118-16.118v-141.092c0-8.886-7.233-16.118-16.118-16.118h-141.092c-8.886-0.008-16.118 7.233-16.118 16.118zM423.692 728.895v-48.147h-77.035v48.147h77.035zM38.531 622.972c-5.228 0-9.643 3.589-9.643 7.848v13.191c0 4.253 4.414 7.848 9.643 7.848h702.924c5.22 0 9.635-3.596 9.635-7.848v-13.191c0-4.253-4.406-7.848-9.635-7.848-9.752 0-694.941 0-702.924 0zM343.144 833.516c-8.693 0-15.746 7.045-15.746 15.746s7.045 15.746 15.746 15.746h31.099v31.099c0 8.701 7.045 15.746 15.746 15.746s15.746-7.045 15.746-15.746v-31.099h31.099c8.701 0 15.746-7.045 15.746-15.746s-7.045-15.746-15.746-15.746h-31.099v-31.099c0-8.701-7.045-15.746-15.746-15.746s-15.746 7.045-15.746 15.746v31.099h-31.099zM216.905 555.567c7.847 0 14.2-6.47 14.2-14.444 0-7.982-6.353-14.444-14.2-14.444h-58.264c-7.847 0-14.2 6.462-14.2 14.444 0 7.974 6.353 14.444 14.2 14.444h58.264zM342.086 555.567c7.847 0 14.2-6.47 14.2-14.444 0-7.982-6.353-14.444-14.2-14.444h-58.264c-7.847 0-14.2 6.462-14.2 14.444 0 7.974 6.353 14.444 14.2 14.444h58.264zM486.52 555.567c7.846 0 14.206-6.47 14.206-14.444 0-7.982-6.36-14.444-14.206-14.444h-58.259c-7.846 0-14.199 6.462-14.199 14.444 0 7.974 6.352 14.444 14.199 14.444h58.259zM611.708 555.567c7.847 0 14.2-6.47 14.2-14.444 0-7.982-6.353-14.444-14.2-14.444h-58.264c-7.847 0-14.2 6.462-14.2 14.444 0 7.974 6.353 14.444 14.2 14.444h58.264zM216.905 488.161c7.847 0 14.2-6.47 14.2-14.444 0-7.982-6.353-14.444-14.2-14.444h-58.264c-7.847 0-14.2 6.462-14.2 14.444 0 7.974 6.353 14.444 14.2 14.444h58.264zM342.086 488.161c7.847 0 14.2-6.47 14.2-14.444 0-7.982-6.353-14.444-14.2-14.444h-58.264c-7.847 0-14.2 6.462-14.2 14.444 0 7.974 6.353 14.444 14.2 14.444h58.264zM486.52 488.161c7.846 0 14.206-6.47 14.206-14.444 0-7.982-6.36-14.444-14.206-14.444h-58.259c-7.846 0-14.199 6.462-14.199 14.444 0 7.974 6.352 14.444 14.199 14.444h58.259zM611.708 488.161c7.847 0 14.2-6.47 14.2-14.444 0-7.982-6.353-14.444-14.2-14.444h-58.264c-7.847 0-14.2 6.462-14.2 14.444 0 7.974 6.353 14.444 14.2 14.444h58.264zM216.905 411.127c7.847 0 14.2-6.47 14.2-14.444 0-7.982-6.353-14.444-14.2-14.444h-58.264c-7.847 0-14.2 6.462-14.2 14.444 0 7.974 6.353 14.444 14.2 14.444h58.264zM342.086 411.127c7.847 0 14.2-6.47 14.2-14.444 0-7.982-6.353-14.444-14.2-14.444h-58.264c-7.847 0-14.2 6.462-14.2 14.444 0 7.974 6.353 14.444 14.2 14.444h58.264zM486.52 411.127c7.846 0 14.206-6.47 14.206-14.444 0-7.982-6.36-14.444-14.206-14.444h-58.259c-7.846 0-14.199 6.462-14.199 14.444 0 7.974 6.352 14.444 14.199 14.444h58.259zM611.708 411.127c7.847 0 14.2-6.47 14.2-14.444 0-7.982-6.353-14.444-14.2-14.444h-58.264c-7.847 0-14.2 6.462-14.2 14.444 0 7.974 6.353 14.444 14.2 14.444h58.264zM216.905 353.35c7.847 0 14.2-6.462 14.2-14.444s-6.353-14.444-14.2-14.444h-58.264c-7.847 0-14.2 6.462-14.2 14.444s6.353 14.444 14.2 14.444h58.264zM342.086 353.35c7.847 0 14.2-6.462 14.2-14.444s-6.353-14.444-14.2-14.444h-58.264c-7.847 0-14.2 6.462-14.2 14.444s6.353 14.444 14.2 14.444h58.264zM486.52 353.35c7.846 0 14.206-6.462 14.206-14.444s-6.36-14.444-14.206-14.444h-58.259c-7.846 0-14.199 6.462-14.199 14.444s6.352 14.444 14.199 14.444h58.259zM611.708 353.35c7.847 0 14.2-6.462 14.2-14.444s-6.353-14.444-14.2-14.444h-58.264c-7.847 0-14.2 6.462-14.2 14.444s6.353 14.444 14.2 14.444h58.264z" />
<glyph unicode="&#xe908;" glyph-name="feature4" horiz-adv-x="719" d="M82.767 317.426c-0.098-0.039-0.195-0.078-0.293-0.117-3.365-1.328-82.474-33.609-82.474-122.405v-220.568c0-21.133 17.89-38.336 39.884-38.336h639.211c21.986 0 39.884 17.203 39.884 38.336v84.671c0 8.297-6.998 15.023-15.63 15.023s-15.622-6.726-15.622-15.023v-84.671c0-4.57-3.869-8.297-8.632-8.297h-92.162v125.772c0 8.297-6.99 15.015-15.622 15.015s-15.63-6.719-15.63-15.015v-125.772h-180.562v119.702l149.415 148.662c9.656 9.601 8.583 24.281-2.723 32.726l-28.204 21.070 25.595 25c3.82 3.727 6.291 8.164 7.323 12.836l98.193-36.546c2.788-1.148 62.999-26.945 62.999-94.585v-65.804c0-8.297 6.998-15.015 15.63-15.015s15.622 6.719 15.622 15.015v65.804c0 88.796-79.101 121.077-82.466 122.405-0.098 0.039-0.195 0.078-0.301 0.117-19.97 7.437-166.882 62.124-186.804 69.538v7.391h67.852c21.913 0 30.268 9.009 30.268 30.071v112.362c8.534 10.625 18.948 30.994 18.948 44.080s-0.944 24.181-9.479 34.805v63.445c0 43.945-15.76 86.233-44.557 120.085l37.429 100.851c3.089 8.336 2.235 17.515-2.341 25.187s-12.387 13.023-21.433 14.664c-73.834 13.422-91.927 17.484-129.022 20.054-8.551 0.617-16.085-5.633-16.703-13.906-0.626-8.273 5.852-15.461 14.46-16.055 34.852-2.414 51.084-6.094 125.454-19.609l0.146-0.242-36.194-97.522c-45.264 6.086-75.484 11.039-124.381 11.070-0.122 0-0.244 0-0.366 0-0.252 0-0.496-0.008-0.748-0.008-47.808-0.055-77.467-4.805-123.999-11.062l-36.194 97.522 0.146 0.242c74.281 13.5 90.61 17.195 125.462 19.609 8.607 0.594 15.077 7.781 14.46 16.055s-8.055 14.515-16.703 13.906c-37.73-2.609-56.985-6.961-129.031-20.054-9.038-1.641-16.849-6.984-21.425-14.664-4.584-7.672-5.429-16.851-2.341-25.179l37.429-100.866c-28.797-33.843-44.549-76.132-44.549-120.077v-246.568c0-21.062 17.825-38.195 39.737-38.195h67.649v-7.391c-22.132-8.25-164.42-61.273-186.609-69.538zM337.702-32.653h-176.188v124.101c0 8.187-6.82 14.825-15.243 14.825s-15.251-6.638-15.251-14.825v-124.101h-89.926c-4.639 0-8.414 3.67-8.414 8.179v217.658c0 66.722 57.918 91.854 61.471 93.326l95.802 36.102c1.007-4.625 3.426-9.012 7.153-12.705l24.974-24.661-27.511-20.791c-11.055-8.357-12.070-22.834-2.665-32.301l145.797-146.696v-118.111zM354.687 155.429l-38.772 146.286h76.255l-37.484-146.286zM306.468 333.061l-12.34 46.052v27.091c22.061-8.774 45.971-12.473 69.541-11.175 0.083 0.008 0.174 0.016 0.257 0.023 17.263 0.979 33.606 4.274 50.032 10.825v-26.764l-12.307-46.052h-95.183zM487.714 336.349c0.714-2.053 1.403-4.038 2.059-5.916l-32.050-29.946c-8.286-7.725-8.552-22.519 3.529-31.144l28.961-20.694-108.936-103.669 56.976 208.98 49.461-17.61zM522.894 435.059c0-4.39-3.911-7.957-8.705-7.957h-67.55c29.043 20.953 50.423 52.478 55.726 89.414 6.746 0.663 13.792 7.42 20.529 9.851v-91.308zM544.681 580.867c0-26.122-26.33-35.492-43.574-38.826v77.429c17.353-3.38 43.574-12.48 43.574-38.602zM204.425 427.102c-4.601 0-8.34 3.621-8.34 8.078v244.194c0 37.394 13.573 73.349 38.346 101.853 49.29 6.677 78.033 11.59 125.055 11.59 47.117 0 76.028-4.952 125.055-11.598 24.773-28.496 38.354-64.451 38.354-101.845v-40.636c-0.072 0.023-0.136 0.046-0.208 0.070-5.999 2.282-12.398 3.799-18.358 4.503-1.142 10.368-8.532 19.173-19.133 22.322-23.367 6.878-48.819 21.417-70.572 43.143-11.208 11.188-29.638 10.453-39.983-0.975-36.772-40.605-88.682-82.068-142.374-101.272-10.641-3.799-17.791-13.734-17.791-24.72v-45.804c0-43.166 20.579-83.128 54.714-108.901h-64.764zM239.66 537.214v43.935c70.565 26.231 134.62 86.836 157.957 112.402 23.706-23.125 54.75-40.477 81.702-48.996v-118.187c0-59.902-57.092-109.714-119.83-109.714-67.927 0-119.83 60.854-119.83 120.561zM269.662 353.959c5.233-19.134 51.823-189.532 57.147-208.98l-108.936 103.642 28.972 20.699c12.036 8.59 11.87 23.387 3.538 31.152l-32.062 29.953c0.664 1.901 1.362 3.909 2.077 5.978l49.264 17.554zM315.915 881.633c0 8.163 6.892 14.773 15.402 14.773h7.316v7.025c0 8.163 6.9 14.773 15.41 14.773s15.402-6.61 15.402-14.773v-7.025h7.316c8.51 0 15.41-6.61 15.41-14.773s-6.9-14.781-15.41-14.781h-7.316v-7.018c0-8.163-6.892-14.773-15.402-14.773s-15.41 6.61-15.41 14.773v7.018h-7.316c-8.51 0-15.402 6.618-15.402 14.781z" />
<glyph unicode="&#xe909;" glyph-name="Path-2" horiz-adv-x="1617" d="M561.603 342.373h250.082c-43.897-124.085-162.787-213.051-301.975-212.024-168.886 1.247-308.532 136.326-315.088 305.058-7.028 180.868 138.105 330.252 317.474 330.252 82.014 0 156.856-31.243 213.279-82.438 13.364-12.129 33.708-12.206 46.852 0.164l91.854 86.434c14.363 13.519 14.416 36.349 0.094 49.913-89.482 84.757-209.517 137.587-341.887 140.171-282.33 5.511-520.309-225.927-522.275-508.253-1.984-284.446 228.044-515.65 512.083-515.65 273.154 0 496.298 213.837 511.244 483.202 0.398 3.377 0.66 117.512 0.66 117.512h-462.397c-18.953 0-34.316-15.36-34.316-34.309v-125.723c0-18.95 15.366-34.309 34.316-34.309zM1458.815 532.5v126.953c0 17.163-13.911 31.073-31.073 31.073h-106.853c-17.163 0-31.073-13.911-31.073-31.073v-126.953h-126.953c-17.163 0-31.073-13.911-31.073-31.073v-106.853c0-17.163 13.911-31.073 31.073-31.073h126.953v-126.953c0-17.163 13.911-31.073 31.073-31.073h106.853c17.163 0 31.073 13.911 31.073 31.073v126.953h126.953c17.163 0 31.073 13.911 31.073 31.073v106.853c0 17.163-13.911 31.073-31.073 31.073h-126.953z" />
<glyph unicode="&#xe90a;" glyph-name="Path" horiz-adv-x="573" d="M550.624 959.794l-137.238 0.206c-154.182 0-253.821-95.443-253.821-243.167v-112.116h-137.986c-11.924 0-21.579-9.025-21.579-20.158v-162.444c0-11.132 9.667-20.147 21.579-20.147h137.986v-409.898c0-11.132 9.656-20.147 21.579-20.147h180.033c11.924 0 21.579 9.025 21.579 20.147v409.898h161.338c11.924 0 21.579 9.015 21.579 20.147l0.066 162.444c0 5.345-2.279 10.464-6.32 14.247s-9.546 5.911-15.271 5.911h-161.393v95.042c0 45.681 11.659 68.871 75.395 68.871l92.45 0.031c11.913 0 21.568 9.025 21.568 20.147v150.839c0 11.112-9.645 20.127-21.546 20.147z" />
<glyph unicode="&#xe90b;" glyph-name="Rectangle-2" d="M0 661.333v-725.333h213.333v725.333h-213.333zM847.546 652.827c-2.506 0.791-4.88 1.648-7.517 2.374-3.165 0.725-6.33 1.319-9.561 1.846-12.528 2.506-26.244 4.286-42.333 4.286-137.55 0-224.787-100.030-253.537-138.671v138.671h-235.931v-725.333h235.931v395.636c0 0 178.3 248.328 253.537 65.939 0-162.804 0-461.576 0-461.576h235.865v489.468c0 109.591-75.105 200.917-176.454 227.359zM106.667 746.667c58.91 0 106.667 47.756 106.667 106.667s-47.756 106.667-106.667 106.667c-58.91 0-106.667-47.756-106.667-106.667s47.756-106.667 106.667-106.667z" />
<glyph unicode="&#xe90c;" glyph-name="Search" d="M1008.431 27.298l-252.434 253.474c64.905 74.491 100.467 168.216 100.467 265.788 0 227.967-192.109 413.44-428.232 413.44s-428.232-185.473-428.232-413.44c0-227.967 192.109-413.44 428.232-413.44 88.644 0 173.117 25.813 245.34 74.815l254.351-255.398c10.631-10.66 24.931-16.538 40.254-16.538 14.504 0 28.263 5.339 38.708 15.046 22.194 20.618 22.901 54.808 1.545 76.253zM426.667 846.222c172.531 0 312.889-140.358 312.889-312.889s-140.358-312.889-312.889-312.889c-172.531 0-312.889 140.358-312.889 312.889s140.358 312.889 312.889 312.889z" />
<glyph unicode="&#xe90d;" glyph-name="Shape" horiz-adv-x="1455" d="M1430.013 795.277c-17.815 78.132-81.113 135.775-157.315 144.373-180.447 20.337-363.087 20.443-544.886 20.337-181.829 0.106-364.499 0-544.946-20.337-76.156-8.599-139.41-66.242-157.225-144.373-25.355-111.268-25.641-232.726-25.641-347.285s0-236.002 25.355-347.255c17.785-78.116 81.053-135.76 157.255-144.373 180.432-20.352 363.087-20.458 544.916-20.352 181.859-0.106 364.469 0 544.886 20.352 76.156 8.599 139.47 66.242 157.285 144.373 25.37 111.268 25.461 232.711 25.461 347.255 0 114.559 0.21 236.017-25.145 347.285zM539.794 219.967c0 162.511 0 323.324 0 485.85 154.22-81.24 307.419-161.935 462.616-243.676-154.716-81.013-307.99-161.222-462.616-242.174z" />
<glyph unicode="&#xe90e;" glyph-name="World" d="M874.041 809.841c-95.068 95.016-220.942 148.027-355.107 149.799-2.337 0.212-4.657 0.36-6.934 0.36s-4.596-0.148-6.934-0.36c-134.165-1.77-260.039-54.78-355.107-149.797-96.702-96.654-149.959-225.159-149.959-361.843s53.257-265.191 149.961-361.843c95.068-95.016 220.94-148.027 355.107-149.797 2.337-0.214 4.657-0.36 6.932-0.36 2.277 0 4.596 0.148 6.934 0.36 134.167 1.77 260.041 54.78 355.107 149.797 96.702 96.65 149.959 225.155 149.959 361.843 0.002 136.685-53.255 265.189-149.959 361.841zM178.953 771.34c55.645 57.393 123.007 98.295 196.514 120.394-16.568-19.673-32.673-42.3-47.663-67.374-19.119-31.981-35.672-66.643-49.534-103.293h-141.737c12.897 17.595 27.035 34.405 42.42 50.273zM118.417 652.8h154.65c-16.082-54.099-25.593-111.734-27.943-170.667h-176.857c4.154 60.325 21.299 118.217 50.15 170.667zM118.421 243.2c-28.855 52.449-46.001 110.342-50.154 170.667h176.857c2.35-58.934 11.861-116.569 27.943-170.667h-154.646zM178.955 124.66c-15.389 15.868-29.526 32.676-42.421 50.273h141.738c13.861-36.649 30.413-71.312 49.533-103.293 14.989-25.074 31.094-47.701 47.662-67.374-73.504 22.099-140.866 63.001-196.512 120.394zM477.867 4.267c-27.547 16.9-64.536 50.855-99.147 103.487-13.881 21.108-26.358 43.589-37.387 67.18h136.531v-170.667h0.002zM477.867 243.2h-141.239c-16.919 53.454-26.961 111.247-29.428 170.667h170.667v-170.667zM477.867 482.133h-170.667c2.465 59.42 12.507 117.214 29.428 170.667h141.239v-170.667zM477.864 721.067h-136.531c11.029 23.591 23.506 46.072 37.387 67.18 34.608 52.632 71.599 86.589 99.147 103.487v-170.667h-0.002zM905.582 652.8c28.855-52.451 45.998-110.342 50.152-170.667h-176.857c-2.35 58.934-11.861 116.569-27.943 170.667h154.648zM845.047 771.34c15.385-15.868 29.522-32.678 42.42-50.273h-141.737c-13.862 36.649-30.413 71.312-49.534 103.293-14.989 25.074-31.093 47.701-47.663 67.374 73.504-22.099 140.867-63.001 196.514-120.394zM546.133 891.733c27.547-16.9 64.536-50.855 99.147-103.487 13.881-21.108 26.358-43.589 37.387-67.18h-136.531v170.667h-0.002zM546.133 652.8h141.239c16.921-53.454 26.963-111.251 29.428-170.667h-170.667v170.667zM716.8 413.867c-2.465-59.42-12.507-117.214-29.428-170.667h-141.239v170.667h170.667zM546.133 4.267v170.667h136.533c-11.029-23.591-23.506-46.072-37.387-67.18-34.609-52.634-71.598-86.587-99.146-103.487zM845.047 124.66c-55.647-57.393-123.007-98.293-196.514-120.394 16.568 19.673 32.673 42.3 47.663 67.374 19.119 31.981 35.672 66.643 49.534 103.293h141.737c-12.895-17.595-27.035-34.405-42.42-50.273zM905.583 243.2h-154.65c16.082 54.097 25.595 111.732 27.943 170.667h176.857c-4.154-60.325-21.299-118.217-50.15-170.667z" />
<glyph unicode="&#xe90f;" glyph-name="XMLID_799" horiz-adv-x="834" d="M726.161 855.066c-73.073 67.666-174.199 104.934-284.748 104.934-168.868 0-272.73-66.771-330.122-122.781-70.732-69.027-111.291-160.68-111.291-251.465 0-113.986 49.428-201.475 132.201-234.023 5.557-2.196 11.148-3.303 16.63-3.303 17.462 0 31.298 11.021 36.092 28.701 2.794 10.143 9.269 35.164 12.083 46.026 6.026 21.451 1.157 31.769-11.984 46.707-23.94 27.323-35.088 59.634-35.088 101.684 0 124.902 96.418 257.647 275.12 257.647 141.792 0 229.872-77.736 229.872-202.869 0-78.964-17.633-152.093-49.661-205.924-22.256-37.403-61.391-81.99-121.471-81.99-25.981 0-49.318 10.295-64.045 28.241-13.911 16.966-18.496 38.883-12.901 61.724 6.321 25.807 14.939 52.728 23.279 78.753 15.213 47.533 29.593 92.426 29.593 128.244 0 61.265-39.046 102.43-97.154 102.43-73.847 0-131.701-72.349-131.701-164.709 0-45.297 12.48-79.176 18.13-92.185-9.303-38.021-64.592-264.061-75.080-306.686-6.064-24.883-42.594-221.41 17.869-237.081 67.934-17.607 128.658 173.798 134.838 195.428 5.009 17.59 22.536 84.103 33.277 124.991 32.794-30.471 85.598-51.070 136.978-51.070 96.86 0 183.968 42.043 245.28 118.379 59.463 74.040 92.213 177.236 92.213 290.565 0 88.598-39.444 175.942-108.21 239.631z" />
<glyph unicode="&#xe910;" glyph-name="Instagram" d="M512 662.71c-118.391 0-214.71-96.319-214.71-214.709s96.319-214.71 214.71-214.71c118.391 0 214.71 96.319 214.71 214.71s-96.319 214.709-214.71 214.709zM512 332.387c-63.852 0-115.613 51.761-115.613 115.613s51.762 115.613 115.613 115.613c63.852 0 115.613-51.761 115.613-115.613 0-63.85-51.762-115.613-115.613-115.613zM718.945 960c168.206 0 305.053-136.847 305.055-305.055v-413.89c0-168.208-136.847-305.055-305.055-305.055h-413.89c-168.208 0-305.055 136.847-305.055 305.055v413.89c0 168.208 136.847 305.055 305.055 305.055h413.89zM920.986 241.055v413.89c0 111.585-90.458 202.041-202.041 202.041h-413.89c-111.583 0-202.041-90.456-202.041-202.041v-413.89c0-111.583 90.458-202.041 202.041-202.041h413.89c111.583 0 202.041 90.458 202.041 202.041zM743.226 662.71c-27.365 0-49.548 22.184-49.548 49.548s22.184 49.548 49.548 49.548c13.682 0 26.070-5.546 35.036-14.512s14.512-21.354 14.512-35.036c0-27.365-22.184-49.548-49.548-49.548z" />
<glyph unicode="&#xe911;" glyph-name="Telegram" d="M832.653 952.431l-733.319-244.431c-60.334-20.104-99.334-74.248-99.334-137.871 0-63.602 39-117.705 99.376-137.85l297.732-99.226 99.23-297.763c20.104-60.29 74.209-99.289 137.814-99.289 63.626 0 117.73 38.999 137.876 99.372l244.44 733.292c17.479 52.519 4.042 109.476-35.125 148.642s-96.209 52.686-148.689 35.124zM599.567 100.094l-108.885 326.588-326.577 108.852c-22.355 7.451-34.437 31.614-26.986 53.969 4.247 12.741 14.244 22.739 26.985 26.986l693.614 231.197c22.355 7.451 46.518-4.63 53.969-26.985 2.919-8.757 2.919-18.225 0.001-26.982l-231.167-693.619c-7.451-22.355-31.613-34.438-53.968-26.988-12.741 4.246-22.738 14.243-26.986 26.983z" />
<glyph unicode="&#xe912;" glyph-name="Twitter" horiz-adv-x="1229" d="M1228.749 844.182c-45.225-19.654-93.75-32.983-144.736-38.934 52.059 30.575 91.909 79.070 110.796 136.679-48.833-28.314-102.735-48.874-160.169-60.019-45.992 48.12-111.411 78.092-183.971 78.092-139.206 0-252.077-110.699-252.077-247.152 0-19.353 2.227-38.254 6.527-56.329-209.462 10.318-395.198 108.741-519.509 258.299-21.73-36.449-34.092-78.919-34.092-124.254 0-85.773 44.534-161.455 112.103-205.733-41.31 1.355-80.162 12.5-114.175 31.026v-3.088c0-119.735 86.918-219.665 202.168-242.408-21.116-5.573-43.382-8.66-66.417-8.66-16.277 0-32.018 1.581-47.451 4.594 32.094-98.273 125.156-169.737 235.416-171.696-86.227-66.269-194.952-105.654-313.042-105.654-20.347 0-40.388 1.205-60.12 3.389 111.565-70.261 244.015-111.226 386.37-111.226 463.689 0 717.149 376.677 717.149 703.35l-0.845 32.004c49.523 34.643 92.367 78.169 126.075 127.72z" />
<glyph unicode="&#xe913;" glyph-name="bookmark" horiz-adv-x="1238" d="M0 960h1238.326v-975.949c0-26.304-21.324-47.628-47.628-47.628-6.376 0-12.686 1.28-18.558 3.764l-525.141 222.175c-17.794 7.528-37.879 7.528-55.673 0l-525.141-222.175c-24.225-10.249-52.172 1.081-62.421 25.306-2.484 5.872-3.764 12.182-3.764 18.558v975.949z" />
<glyph unicode="&#xe914;" glyph-name="layers" horiz-adv-x="1138" d="M700.53 198.827l-74.524-71.68v320.853c0 31.419-25.47 56.889-56.889 56.889s-56.889-25.47-56.889-56.889v0-318.009l-73.387 73.956c-10.337 10.337-24.617 16.731-40.391 16.731-31.547 0-57.122-25.574-57.122-57.122 0-15.774 6.394-30.054 16.731-40.391v0l170.667-170.667c10.283-10.227 24.46-16.549 40.112-16.549 15.367 0 29.311 6.093 39.548 15.995l-0.016-0.015 170.667 164.978c12.671 10.511 20.682 26.259 20.682 43.879 0 31.419-25.47 56.889-56.889 56.889-16.769 0-31.843-7.255-42.255-18.798l-0.045-0.050zM891.221 732.558c-47.666 134.83-174.035 229.693-322.56 229.693s-274.894-94.863-321.822-227.306l-0.738-2.387c-140.008-19.285-246.684-138.148-246.684-281.927 0-72.469 27.101-138.608 71.72-188.835l-0.254 0.291c9.971-17.325 28.381-28.802 49.472-28.802 31.419 0 56.889 25.47 56.889 56.889 0 17.777-8.154 33.649-20.926 44.082l-0.102 0.081c-26.97 30.054-43.461 69.991-43.461 113.78 0 94.257 76.41 170.667 170.667 170.667 0.279 0 0.558-0.001 0.837-0.002h5.646c0.341-0.007 0.744-0.012 1.147-0.012 27.395 0 50.268 19.364 55.677 45.152l0.065 0.37c21.823 104.722 113.357 182.273 223.004 182.273s201.181-77.55 222.746-180.794l0.258-1.479c5.474-26.158 28.346-45.523 55.742-45.523 0.403 0 0.806 0.004 1.207 0.013l-0.060-0.001h3.413c0.236 0.001 0.515 0.002 0.794 0.002 94.257 0 170.667-76.41 170.667-170.667 0-43.789-16.491-83.726-43.602-113.939l0.141 0.159c-8.955-10.009-14.43-23.296-14.43-37.862 0-17.098 7.543-32.434 19.483-42.863l0.067-0.057c9.963-8.784 23.126-14.146 37.542-14.146 16.965 0 32.196 7.426 42.619 19.206l0.052 0.060c46.021 50.359 74.214 117.689 74.214 191.603 0 144.753-108.126 264.251-248.017 282.134l-1.414 0.148z" />
</font>
</defs>
</svg>
