<?xml version="1.0" encoding="UTF-8"?>
<svg width="600px" height="363px" viewBox="0 0 657 363" version="1.1" xmlns="http://www.w3.org/2000/svg" xmlns:xlink="http://www.w3.org/1999/xlink">
    <!-- Generator: Sketch 52.3 (67297) - http://www.bohemiancoding.com/sketch -->
    <title>Path 8</title>
    <desc>Created with Sketch.</desc>
    <g id="Pages" stroke="none" stroke-width="1" fill="none" fill-rule="evenodd">
        <g id="Index" transform="translate(-36.000000, -1367.000000)" fill="#15CFCF" fill-rule="nonzero">
            <g id="Side" transform="translate(276.500000, 1582.000000) scale(-1, 1) translate(-276.500000, -1582.000000) translate(-254.000000, 1054.000000)">
                <path d="M361,480.5 C306.500265,372.70066 550.135659,311.080936 720.182331,356.671885 C779.89355,372.680967 796.932152,642.969813 713.077463,661.279694 C474.365813,713.402979 429.841556,616.667164 361,480.5 Z M169,352.5 C150.5,377.5 131.5,371 134,342 C136.5,313 194.5,310 211.5,316 C228.5,322 187.5,327.5 169,352.5 Z M130.028118,347 C130.028118,351 126,335.5 129,326.5 C132,317.5 142.004887,320.5 136.5,326.5 C130.995113,332.5 130.028118,343 130.028118,347 Z M115,640.5 C116.528118,643.966611 122.495113,655.966611 128,661.966611 C133.504887,667.966611 127,671 121,665 C115,659 113.471882,637.033389 115,640.5 Z" id="Path-8"></path>
            </g>
        </g>
    </g>
</svg>