<?xml version="1.0" encoding="utf-8"?>
<!-- Generator: Adobe Illustrator 22.1.0, SVG Export Plug-In . SVG Version: 6.00 Build 0)  -->
<svg version="1.1" id="Layer_1" xmlns="http://www.w3.org/2000/svg" xmlns:xlink="http://www.w3.org/1999/xlink" x="0px" y="0px"
	 viewBox="0 0 200 200" style="enable-background:new 0 0 200 200;" xml:space="preserve">
<style type="text/css">
	.st0{display:none;fill:#FF4200;}
	.st1{fill:#FEFEFE;}
</style>
<rect x="-27" y="-30" class="st0" width="263" height="274"/>
<g>
	<path class="st1" d="M118.9,29.9c25,0,50.1,0,75.5,0c-3.7,16.6-7.3,33.1-11,49.6c-6.4,28.9-12.9,57.8-19.3,86.7
		c-0.7,3.1-1.5,4.3-5,4.3c-21.2-0.2-42.3-0.2-63.5,0c-3.2,0-4.3-1.1-4.9-3.9c-9.9-44.5-19.9-88.9-29.9-133.4
		c-0.6-2.8-0.3-3.9,2.9-3.7c6.2,0.2,12.3,0.2,18.5,0c2.7-0.1,3.7,0.8,4.3,3.4c6.3,28.6,12.7,57.1,19,85.7c1.9,8.4,3.8,16.9,5.5,25.3
		c0.5,2.6,1.3,3.9,4.4,3.8c15.7-0.2,31.3-0.1,47-0.1c2.1,0,3.6,0,4.2-2.8c8.1-36.9,16.4-73.7,24.7-110.5c0.9-3.9-1.8-2.7-3.4-2.7
		c-21.3-0.1-42.7,0-64-0.1C122.3,31.6,120.4,32,118.9,29.9z"/>
	<path class="st1" d="M62.5,75.8c-4.4,0-8.3-0.1-12.1,0c-12.5,0.4-22,9.7-22.2,21.7c-0.2,12.2,9.2,22,21.9,22.6c1.7,0.1,3.3,0,5,0
		c3.8,0,3.8,0,4.7-4.5c4.9,4.9,9.5,9.6,14.2,14.2c1.6,1.6,0.9,2.4-0.3,3.6c-4.5,4.4-8.9,8.9-14.2,14.2c0.8-6.2-3.1-5.2-6.1-5.1
		c-25.2,1.2-41.2-16.2-45.9-32C-0.8,82.7,20,53.9,49.1,53.4c8.6-0.1,8.6-0.1,10.4,8.2c0.5,2.3,0.9,4.6,1.4,6.8
		C61.4,70.6,61.9,72.9,62.5,75.8z"/>
</g>
</svg>
