<?xml version="1.0" encoding="UTF-8"?>
<svg width="12px" height="10px" viewBox="0 0 12 10" version="1.1" xmlns="http://www.w3.org/2000/svg" xmlns:xlink="http://www.w3.org/1999/xlink">
    <!-- Generator: Sketch 52.6 (67491) - http://www.bohemiancoding.com/sketch -->
    <title>Path</title>
    <desc>Created with Sketch.</desc>
    <g id="Pages" stroke="none" stroke-width="1" fill="none" fill-rule="evenodd">
        <g id="Any-Blog/News" transform="translate(-1002.000000, -208.000000)" fill="#FFFFFF">
            <g id="Title" transform="translate(984.000000, 183.000000)">
                <g id="Group-5" transform="translate(0.000000, 6.000000)">
                    <g id="left-arrow" transform="translate(18.000000, 12.000000)">
                        <path d="M11.3254636,10.7854801 L11.3441953,10.7893171 L3.31434336,10.7893171 L5.83863549,8.42033156 C5.96224522,8.30467325 6.03005008,8.14799552 6.03005008,7.98355243 C6.03005008,7.81910933 5.96224522,7.66352789 5.83863549,7.54759551 L5.44585509,7.1796084 C5.32234292,7.06395009 5.15775759,7 4.98224543,7 C4.80663571,7 4.64195282,7.06349331 4.51844065,7.17915162 L0.191319645,11.2307554 C0.0673196723,11.3468705 -0.000485190981,11.5015384 2.6137912e-06,11.6660728 C-0.000485190981,11.8315209 0.0673196723,11.9862801 0.191319645,12.1022125 L4.51844065,16.1541817 C4.64195282,16.2697487 4.80653815,16.3333333 4.98224543,16.3333333 C5.15775759,16.3333333 5.32234292,16.2696573 5.44585509,16.1541817 L5.83863549,15.7861946 C5.96224522,15.670719 6.03005008,15.5165079 6.03005008,15.3520648 C6.03005008,15.1877131 5.96224522,15.0416328 5.83863549,14.9260659 L3.28585556,12.5438335 L11.3344392,12.5438335 C11.6960976,12.5438335 12,12.2519471 12,11.9134683 L12,11.3930059 C12,11.0545272 11.687122,10.7854801 11.3254636,10.7854801 Z" id="Path"></path>
                    </g>
                </g>
            </g>
        </g>
    </g>
</svg>