<svg xmlns="http://www.w3.org/2000/svg" viewBox="0 0 2156.16 419.86"><defs><style>.cls-1{fill:#ffffff;}</style></defs><title>Cafelead-copyright</title><g id="Layer_2" data-name="Layer 2"><g id="Layer_1-2" data-name="Layer 1"><path class="cls-1" d="M0,196.8a38.26,38.26,0,0,0,1-4.58,124.85,124.85,0,0,1,14.84-47.77Q45.79,90.63,106.1,77.52A126.17,126.17,0,0,1,130.62,75c6.88-.11,13.76,0,20.64,0,.55,0,1.11.06,2,.1,5,22,9.92,44,15,66.39H131.67A65,65,0,0,0,119,270.19a72.3,72.3,0,0,0,12.37,1.29c8.16.2,16.32.06,24.48.06.7,0,1.41-.08,2.47-.15,0-4.65.08-9.21.13-13.77l.7-.43,47.19,47.68-47.81,47.72c-.37-2.16-.07-4.59-.13-7s0-4.78,0-7.46c-1.09-.07-2-.18-2.93-.18-9.6-.06-19.2,0-28.79-.18a122.85,122.85,0,0,1-37.56-6.92A130,130,0,0,1,33,293.18,129.06,129.06,0,0,1,2.4,230.08c-.72-3.92-1.13-7.9-1.73-11.84A16.85,16.85,0,0,0,0,216Z"/><path class="cls-1" d="M2155.7,280.4a121,121,0,0,0-5.4-32.55c-8.75-28.81-26.57-49.94-53.84-62.89-16.8-8-34.73-11.66-53.18-12-27.43-.47-54.87-.21-82.31-.24a14.22,14.22,0,0,0-1.78.21c-.46,3.52-.31,240.46.19,242.41h66.14a218.38,218.38,0,0,0,27.77-1.57,144.59,144.59,0,0,0,36.62-9.2c23.17-9.44,41-24.85,52.49-47.25,8.37-16.35,12.3-33.87,13.25-52.13.08-1.58.33-3.15.51-4.73V283.2A19.45,19.45,0,0,1,2155.7,280.4ZM2114,306.92c-1.08,12.44-3.68,24.5-9.25,35.77-8.47,17.15-22.17,28.19-40.17,34.12a92.5,92.5,0,0,1-26.32,4.87c-13,.36-25.9.32-38.86.44a3.93,3.93,0,0,1-.72-.2v-176a13.75,13.75,0,0,1,1.91-.23c13.68.07,27.36-.12,41,.33a83.26,83.26,0,0,1,35.35,8.69c15.43,7.8,25.43,20.3,31.25,36.37a108.42,108.42,0,0,1,5.81,28.33A164.69,164.69,0,0,1,2114,306.92Z"/><path class="cls-1" d="M1165.44,0c0,.16,0,.32,0,.48.34,12.61-.78,25.27,1,37.84,0,.31-.18.65-.38,1.29-.74-.85-1.25-1.43-1.75-2a24.07,24.07,0,0,0-12.56-7.94,34.18,34.18,0,0,0-10.94-.81,24.74,24.74,0,0,0-17.77,8.76A32.1,32.1,0,0,0,1116.53,50a65.22,65.22,0,0,0-1.13,29,35.84,35.84,0,0,0,6,15,24.47,24.47,0,0,0,14.49,10,33.91,33.91,0,0,0,10.25.71,24.08,24.08,0,0,0,18.16-9.35c.42-.52.91-1,1.72-1.88,1.08,3.57,2,6.66,2.94,9.77h12.11V100q0-48.45,0-96.9c0-1,.14-2.06.22-3.09Zm-.51,79.78c-1.81,7.92-7.07,12-15.22,12.41a27.25,27.25,0,0,1-5-.14A14.23,14.23,0,0,1,1133.51,84a29,29,0,0,1-2.91-10.57,50.68,50.68,0,0,1,1.18-18.8,25.13,25.13,0,0,1,1.1-3.16c3.29-7.75,9.55-11.25,17.88-10,8.65,1.27,13.27,6.07,14.68,15.51.52,3.47.67,7,1.07,11.29C1166.07,71.57,1165.84,75.75,1164.93,79.78Z"/><path class="cls-1" d="M2079,56.93a40.93,40.93,0,0,0-4.56-14.55A25.3,25.3,0,0,0,2062.52,31c-8.93-3.94-24.81-3.92-33,7.56a9.32,9.32,0,0,1-1.54,1.19c.14-2.17.32-3.82.34-5.47q.18-16.42.3-32.86a13.87,13.87,0,0,0-.15-1.43h-15.36c0,1,.08,2.08.08,3.12V103.23h11.54l3.07-8.82a22.51,22.51,0,0,1,2.14,1.82,23.14,23.14,0,0,0,14.13,7.93,47.47,47.47,0,0,0,9.3.45,24.24,24.24,0,0,0,18.48-9.76,33.48,33.48,0,0,0,5.95-12.46A66,66,0,0,0,2079,56.93Zm-16.89,22.9c-3.27,10.7-10.95,14.21-21.41,11.65a12.76,12.76,0,0,1-9.26-8,38.11,38.11,0,0,1-2.25-8.52,59.93,59.93,0,0,1,.61-20.73c.12-.55.27-1.08.43-1.62,2.12-7.16,6.53-10.77,14-11.31a24.77,24.77,0,0,1,5,.09A14.28,14.28,0,0,1,2061,50.17a30.83,30.83,0,0,1,2.52,9.94c.22,2.14.26,4.3.35,5.9C2063.73,71.05,2063.46,75.5,2062.14,79.83Z"/><path class="cls-1" d="M1953.6,0c-.06.88-.15,1.75-.16,2.63,0,5.52,0,11,0,16.55,0,6.4-.06,12.79,1,19.14a2.82,2.82,0,0,1-.23,1c-.34-.12-.53-.13-.62-.23-.44-.47-.85-1-1.26-1.45a23.89,23.89,0,0,0-12.52-8,33.54,33.54,0,0,0-10.7-.86,24.83,24.83,0,0,0-19.1,10,33.4,33.4,0,0,0-5.76,12,65.91,65.91,0,0,0-1.16,26.64,38.18,38.18,0,0,0,5.41,15.25c4,6.23,9.53,10.31,16.92,11.47a44,44,0,0,0,8.59.42,23.57,23.57,0,0,0,18.19-9.25c.43-.54.92-1,1.62-1.77,1.54,3.25,1.88,6.54,3.1,9.45,2.81.55,10.24.42,12-.24V100q0-31.54,0-63.09,0-18.48,0-36.95Zm-.83,80.25c-2.1,7.43-6.72,11.28-14.42,11.89a27,27,0,0,1-5.75-.09,14.15,14.15,0,0,1-11.07-7.88,27.16,27.16,0,0,1-2.76-8.88,51.4,51.4,0,0,1,.69-19.77,25.7,25.7,0,0,1,1.36-4.08c3.25-7.71,9.32-11.16,17.62-10.08,7.81,1,12.24,4.9,14.27,12.51a50.26,50.26,0,0,1,1.43,13.55A44.39,44.39,0,0,1,1952.77,80.25Z"/><path class="cls-1" d="M1665.12,0c.05,1,.15,1.91.15,2.87q0,48.59,0,97.18v3.16c-5.16.36-10.14.09-15.44.18v-3.33q0-48.48,0-96.94c0-1,0-2.08-.08-3.12Z"/><path class="cls-1" d="M542.55,16H336.15c-.83-3.56-1.62-6.94-2.44-10.48H557.32q-46.25,207.3-92.43,414.38H254.18L160.76,5.51h75.37Q275,179.15,313.9,352.78H467.44Z"/><path class="cls-1" d="M1853,171.94h-43.15c-5.28,12.39-90.13,241.13-90.22,243.19,2.86.43,39.39.31,41.26-.16,7.86-22.29,15.73-44.65,23.57-66.88h93c.34.89.66,1.7,1,2.52q11.21,31.13,22.41,62.25c.9,2.5.36,2.5,3.51,2.5h39.37Q1898.21,293.2,1853,171.94Zm-56.85,141.9c.43-1.38.71-2.36,1-3.32q12.22-35.32,24.43-70.66a326,326,0,0,0,9-31.56,4.12,4.12,0,0,1,.69-1.5c10.23,36.11,23.91,71,35.63,107Z"/><path class="cls-1" d="M951.34,171.92H908.13q-45.32,121.62-90.64,243.32h41.66Q871,381.58,882.8,348.11h93q12.09,33.63,24.08,66.95c3.28.57,40.13.4,41.91-.22ZM894.59,313.71c.27-.95.46-1.76.73-2.55q8.91-25.71,17.84-51.41c5-14.49,10.16-29,13.92-43.86.76-3,1.49-6,2.22-9,.16-.06.23-.1.27-.09a.31.31,0,0,1,.2.12,2.6,2.6,0,0,1,.33.64C940,243.42,953.66,278,965.21,313.71Z"/><path class="cls-1" d="M1578.45,415V173.22l.17-.21c.06,0,.12-.12.19-.12.79-.06,1.59-.16,2.38-.16H1715c.56,1.85.76,28.37.27,33.19-.86.06-1.78.18-2.69.18q-15.6,0-31.19,0H1618v66h90.79c.61,2,.84,27.49.33,33.06l-9.93.05H1618V382h97.29v33C1712.87,415.53,1580.47,415.47,1578.45,415Z"/><path class="cls-1" d="M1260.93,305.24V382h97.3v32.83c-.08.09-.12.16-.18.22a.44.44,0,0,1-.19.12,4.4,4.4,0,0,1-.94.16q-67.07,0-134.13,0a8.56,8.56,0,0,1-1.16-.14c-.54-1.77-.79-236.81-.27-242l.15-.19c.06-.05.13-.12.2-.12l133.63-.16h2.58c.53,1.86.71,28.79.24,33.19-.94.06-1.94.18-2.94.19q-18,0-36,0h-58c-.59,1.9-.8,61.72-.28,66h90.72c.58,2,.79,28,.3,33.09-7.52,0-15.09,0-22.65,0h-68.43Z"/><path class="cls-1" d="M813.88,374.58V408c-1,.41-2.13.88-3.25,1.27a172.11,172.11,0,0,1-39,8.4,206.46,206.46,0,0,1-31.15.84c-17.29-.87-33.89-4.53-49.17-13-17.69-9.79-30.35-24.24-39-42.37a133.15,133.15,0,0,1-10.94-36.88,203.86,203.86,0,0,1-2.32-36.1c.42-19.26,3.45-38,11-55.91,7.26-17.31,17.91-32.05,33.07-43.34a107.08,107.08,0,0,1,43.83-19,152.64,152.64,0,0,1,41.32-2,148.5,148.5,0,0,1,52.76,14c.5.24,1,.48,1.5.73a4.33,4.33,0,0,1,.57.54L809,217.71c-1-.39-1.74-.7-2.52-1.05a182.29,182.29,0,0,0-28.54-10.46A89.76,89.76,0,0,0,738,204.79c-17.18,3.31-30.61,12.43-40.63,26.67-7.12,10.1-11.4,21.4-13.85,33.43a153.79,153.79,0,0,0-2.61,38.19,136,136,0,0,0,5,32.15A74.86,74.86,0,0,0,699.46,362c9.74,11.92,22.44,18.73,37.42,21.56,8.94,1.7,18,1.76,27,1.21,16-1,31.33-5.16,46.63-9.54.92-.27,1.84-.51,2.77-.75A2,2,0,0,1,813.88,374.58Z"/><path class="cls-1" d="M1194,173v32.94c-1,.08-2,.2-3,.2q-19.2,0-38.4,0h-55.44c-.27.25-.33.3-.38.36a.73.73,0,0,0-.14.18,5.21,5.21,0,0,0-.15,1q0,36.58,0,73.19a9.52,9.52,0,0,0,.2,1.22c1,.05,2,.16,3,.16h84.47c.8,0,1.6,0,2.4,0a10.54,10.54,0,0,1,1.28.18v33.18h-91.28c-.15,4.91,0,9.6-.07,14.28s0,9.44,0,14.16v70.9c-2,.57-35.89.7-38.74.23-.48-1.73-.64-238.8-.17-242C1059.27,172.64,1190,172.45,1194,173Z"/><path class="cls-1" d="M1553.19,381.52V415c-2,.52-139.42.58-141.94.06V172.89h39.2c.21,7.62.07,15.26.09,22.9s0,15.52,0,23.28V381.35c1.14.06,2.13.17,3.13.17h99.51Z"/><path class="cls-1" d="M1294.49,84.13c7.55-9.07,12-19.35,14.78-30.63h-15.82c-2.12,7.28-4.32,14.43-9.07,20.79l-23-22.21c1-.63,1.71-1.07,2.4-1.6,3.17-2.42,6.42-4.75,9.44-7.34a22.06,22.06,0,0,0,5.67-8c5.64-12.75-.54-25.75-13.92-29.2a37.38,37.38,0,0,0-12.38-1,30.54,30.54,0,0,0-13.26,3.74c-5.59,3.28-9,8.06-9.88,14.52a24.08,24.08,0,0,0,3,15.74c1.79,3,4,5.8,6,8.67.45.65,1,1.25,1.56,2-.76.5-1.43.91-2.06,1.35-2.17,1.51-4.39,2.95-6.48,4.54-7.85,6-11.35,14-10.88,23.82.5,10.56,5.67,17.9,15.2,22.24a39.89,39.89,0,0,0,14.92,3.12c12,.54,22.77-2.53,32.33-9.83.49-.37,1-.67,1.64-1.06,2.79,2.71,5.52,5.28,8.16,8a4.77,4.77,0,0,0,3.78,1.61c5-.09,9.91,0,14.87,0,.68,0,1.36-.11,2.65-.23Zm-50.41-58.64a8.7,8.7,0,0,1,5.63-7.18,14,14,0,0,1,10.07-.4c5.11,1.68,7.51,6.81,5.76,12.45a14,14,0,0,1-2.15,4.23c-2.83,3.79-6.84,6.1-11,8.56-3.12-3.45-6.08-6.77-7.67-11A13.66,13.66,0,0,1,1244.08,25.49Zm30.08,59.22c-7.61,6-16.29,8.21-25.66,6.14-13.37-2.94-14.11-17.11-8.23-24.29a33.68,33.68,0,0,1,9.12-7.33L1274.54,84C1274.37,84.32,1274.32,84.58,1274.16,84.71Z"/><path class="cls-1" d="M1426.33,38.39c-3.75-14.8-13.1-24.56-27.64-29.3a60.61,60.61,0,0,0-18.42-2.75c-9.52-.07-19,0-28.55,0-.7,0-1.4.07-2.23.11V103.2c.8.07,1.42.17,2,.17,8.79,0,17.59,0,26.39,0a68.42,68.42,0,0,0,17.09-2.09c15.6-4.09,26.3-13.48,30.79-29.19A64.12,64.12,0,0,0,1426.33,38.39Zm-16.49,30.05c-3,11.07-10.28,17.72-21.34,20.38a56.44,56.44,0,0,1-12.36,1.33c-3.58,0-7.15,0-10.66,0-.5-2-.65-67.16-.21-70.51,8-.4,15.81-.83,23.54.74,11.29,2.28,18.37,9.18,21.17,20.32A54.41,54.41,0,0,1,1409.84,68.44Z"/><path class="cls-1" d="M960.7,30.16h-2.87c-6.39,0-12.79,0-19.19,0a34.47,34.47,0,0,1-5.46-.54,48.31,48.31,0,0,0-20,.24C904,32.1,897.57,37.45,895.5,47a31.77,31.77,0,0,0-.61,8.81c.55,7.85,4.12,14,11.06,18l1.34.81c-1.71,1.36-3.35,2.6-4.91,3.94-5.86,5-5.2,13.88,1.31,18.33.41.28.79.61,1.37,1.06-1.57.56-2.86,1-4.1,1.48a33.32,33.32,0,0,0-3.63,1.83c-11.13,6.53-10,22.53-1.24,28.76a29.81,29.81,0,0,0,11.38,4.82c7.37,1.53,14.79,1.37,22.22.68a47.33,47.33,0,0,0,16.82-4.43c9.35-4.64,13.92-12.1,13.42-22.6-.36-7.86-4.53-13.64-11.89-16.4a33.86,33.86,0,0,0-12-1.92c-4.64,0-9.28.07-13.91-.06a46.11,46.11,0,0,1-7.12-.84,4.15,4.15,0,0,1-3.43-3,6.36,6.36,0,0,1,1.58-6c1.37-1.56,2.71-2.86,5.25-2.6a40.12,40.12,0,0,0,19.34-2.24c15.84-6.28,16.92-23.22,11.76-32.49-.34-.62-.66-1.25-1.11-2.12l12.31-2.37Zm-44.33,73c2.87-.11,5.76,0,8.63,0a1.7,1.7,0,0,0,0-.22c4,.22,8,.42,12,.67a12,12,0,0,1,2.12.39c5.67,1.38,8,5.77,6.15,11.31a11,11,0,0,1-4,5.25,20.23,20.23,0,0,1-8.29,3.6,51.35,51.35,0,0,1-19.06.63,19.5,19.5,0,0,1-5-1.53,9.81,9.81,0,0,1-2.25-16.62A15.11,15.11,0,0,1,916.37,103.2Zm19.69-42.64a9.89,9.89,0,0,1-7,6.69,18.5,18.5,0,0,1-10.17.2c-4.83-1.25-7.65-4.47-8.7-9.23a21.36,21.36,0,0,1,.38-10.91c1.53-5,5-7.86,10.2-8.49a22.07,22.07,0,0,1,4.3-.12c7.1.53,11.23,4.61,11.92,11.69.1,1,.12,2.08.18,3.11l.27.07A65.51,65.51,0,0,1,936.06,60.56Z"/><path class="cls-1" d="M722.23,37.73c-3.7-13.9-12.5-23.3-26.07-28.17a59.53,59.53,0,0,0-19.79-3.22c-9.52-.07-19,0-28.56,0-.7,0-1.39.08-2.21.13V103.2c.84.08,1.39.17,1.94.17,9,0,17.92,0,26.88,0a67,67,0,0,0,16.85-2.12c15.3-4.06,25.91-13.26,30.47-28.64A63.57,63.57,0,0,0,722.23,37.73Zm-16.3,30.7c-3.25,12-11.46,18.64-23.47,20.83-6.73,1.23-13.55.92-20.35.85a3.14,3.14,0,0,1-.82-.28v-70c.29-.16.42-.3.56-.3,6.95-.07,13.93-.59,20.83.51,13.14,2.1,20.71,9,23.65,21.82A54.12,54.12,0,0,1,705.93,68.43Z"/><path class="cls-1" d="M1822.79,55.79A38.31,38.31,0,0,0,1818.18,42c-3.28-5.68-7.82-9.9-14.16-11.91a31.68,31.68,0,0,0-17.27-.46,22.78,22.78,0,0,0-12.92,8.6c-.48.62-.73,1.68-2,1.44-.72-3.09-1.44-6.18-2.14-9.2-2.59-.47-10.47-.4-12.38.1v105.1c3.21.59,13.51.44,15.29-.23V121.85c0-4.48.1-9,0-13.44s-.46-9-.7-13.42l.54-.26c.58.59,1.18,1.16,1.74,1.77a22.85,22.85,0,0,0,13.53,7.6,45.94,45.94,0,0,0,9.3.53c8.28-.38,14.79-4.16,19.59-10.9a34.72,34.72,0,0,0,5.39-12.2A67.79,67.79,0,0,0,1822.79,55.79Zm-16.53,23.15a21.83,21.83,0,0,1-3.43,7.34,13.81,13.81,0,0,1-11.47,5.94,26.3,26.3,0,0,1-4.07-.18c-6.72-.9-11-4.66-13-11.16a51.82,51.82,0,0,1-1.76-15.53,41.93,41.93,0,0,1,1.29-12.24c2.06-7.37,6.61-11.17,14.22-11.78a24.06,24.06,0,0,1,5,.07,14.31,14.31,0,0,1,11.39,8.16,30.27,30.27,0,0,1,3,11.29A50.8,50.8,0,0,1,1806.26,78.94Z"/><path class="cls-1" d="M2135.74,30.28h16.67c-.31.92-.53,1.66-.8,2.38l-30.53,80.73a46.3,46.3,0,0,1-5.76,11C2109.82,132,2102.45,136,2093,136c-2.86,0-5.73-.42-8.59-.69a8.27,8.27,0,0,1-1.6-.47V123c2.36.16,4.58.35,6.8.46,7.12.34,12.13-3,15.21-9.19a94.09,94.09,0,0,0,4.06-10,4.24,4.24,0,0,0-.41-2.7q-6.69-16.83-13.47-33.61L2081,33c-.32-.8-.59-1.63-1-2.67h16.62c.25.61.57,1.32.83,2.05,5,13.76,10,27.49,14.8,41.3,1.49,4.28,2.38,8.78,3.56,13.17.11.44.27.87.58,1.86C2122,68.61,2129.41,49.7,2135.74,30.28Z"/><path class="cls-1" d="M1743.32,50.69C1739.79,40.14,1732.66,33,1721.8,30a42,42,0,0,0-17.85-.7c-12.34,1.92-20.61,8.83-24.92,20.52-2,5.32-2.5,10.88-2.63,17.14a51.11,51.11,0,0,0,1.78,13.35c3.37,11.56,10.41,19.64,22.19,23.13a41.91,41.91,0,0,0,14.5,1.24c13.64-.78,24.26-8.67,28.46-21.65A50.68,50.68,0,0,0,1743.32,50.69Zm-13.58,20.22a42.38,42.38,0,0,1-1.4,8.24C1725.26,90,1717.52,93.23,1707.85,92c-6.43-.8-10.77-4.49-13.15-10.5-1.91-4.84-2.38-9.91-2.34-15.34a42.07,42.07,0,0,1,1.4-11.58c2.82-10.4,9.75-14.27,20.25-13.19,6.85.71,11.41,4.59,13.75,11.05C1729.93,58.44,1730.25,64.65,1729.74,70.91Z"/><path class="cls-1" d="M1895.47,70.23c.23-8.71.6-17.11-3.09-25a26.88,26.88,0,0,0-18.05-15.29,38.47,38.47,0,0,0-18.77-.33c-11.49,2.61-18.7,10-22.33,21a51.22,51.22,0,0,0-1.11,28.64c3.27,13.5,11.81,21.86,25.44,24.69,7.28,1.51,14.64,1.11,22,0a44.91,44.91,0,0,0,11-3.29c.72-.32,1.5-.56,1.49-1.62,0-3.67,0-7.33,0-11.08a4.4,4.4,0,0,0-.87,0c-.67.25-1.34.52-2,.79a55,55,0,0,1-23.21,4c-9.06-.38-15.6-5.47-18-14.2a56.21,56.21,0,0,1-1.12-6.35,11.27,11.27,0,0,1,.08-1.91Zm-44.29-23.79c4-5.36,9.67-6.82,16-5.95S1877.41,45,1879.26,51a27.43,27.43,0,0,1,.9,4.21c.17,1.17.14,2.37.21,3.73H1847C1847.4,54.29,1848.44,50.06,1851.18,46.44Z"/><path class="cls-1" d="M1638.52,70.3c.69-5.53.26-14.75-.94-19.32-2.77-10.55-9.08-17.87-19.72-20.93a37.42,37.42,0,0,0-21.08.08c-10.54,3.07-17.06,10.36-20.39,20.56a52.06,52.06,0,0,0-1.17,28.19c3.23,14.15,13,23.11,27.33,25.32a60.24,60.24,0,0,0,20-.36,72.44,72.44,0,0,0,10.33-3c2.79-.95,2.25-1,2.27-3.22,0-2.64,0-5.28,0-7.92,0-.61-.09-1.21-.16-2.07-1,.38-1.82.66-2.62,1A54.64,54.64,0,0,1,1609,92.68c-11.62-.53-20.09-10.43-18.85-22.38Zm-24.81-29a13.08,13.08,0,0,1,5.65,3.92c3.28,4,4.21,8.62,4.18,13.76h-33.15A17.34,17.34,0,0,1,1613.71,41.3Z"/><path class="cls-1" d="M1500.91,70.31c.23-8.79.6-17.18-3.09-25.08a26.88,26.88,0,0,0-18-15.29,38.47,38.47,0,0,0-18.77-.33c-11.49,2.61-18.7,10-22.33,21a51.28,51.28,0,0,0-1.11,28.63c3.27,13.51,11.81,21.82,25.44,24.72,6.08,1.29,12.25,1,18.4.45a48.4,48.4,0,0,0,14.12-3.58c1.31-.55,2-1.2,2-2.79-.14-2.87,0-5.76,0-8.64a14.22,14.22,0,0,0-.23-1.74c-1,.41-1.84.72-2.64,1a55,55,0,0,1-23.21,4c-9.06-.38-15.6-5.47-18-14.19a56.78,56.78,0,0,1-1.12-6.36,11,11,0,0,1,.07-1.83Zm-32.84-30a24.33,24.33,0,0,1,5.71.39,13.2,13.2,0,0,1,9.65,7.17,22,22,0,0,1,2.33,11.1h-33C1451.61,49.92,1459.06,40.87,1468.07,40.35Z"/><path class="cls-1" d="M797.28,70.29c0-6.72.47-13-1.09-19.09C793.45,40.43,787,33,776.18,30a37.75,37.75,0,0,0-19-.32C745.69,32.31,738.53,39.77,735,50.71a50.86,50.86,0,0,0-.81,29.57c3.39,12.58,11.57,20.51,24.39,23.45,6.32,1.45,12.71,1.22,19.1.65a48.81,48.81,0,0,0,14.13-3.55c1.46-.6,2.14-1.31,2-3-.15-2.79,0-5.6,0-8.4,0-.52-.1-1-.18-1.81-1,.38-1.82.67-2.61,1a55,55,0,0,1-23.2,4.07,19.83,19.83,0,0,1-19.07-22.41ZM771.15,40.93a13.35,13.35,0,0,1,6.46,3.94c3.56,4,4.49,8.82,4.5,14.11H748.94C748.28,46.47,759.32,37.56,771.15,40.93Z"/><path class="cls-1" d="M1083.36,70.26h12c4.05,0,8.1.06,12.32-.05.14-8.34.43-16.32-2.75-23.93s-8.75-13.17-16.72-15.78a37.21,37.21,0,0,0-24,.11c-10,3.44-16,10.81-19.09,20.67a51.79,51.79,0,0,0-.83,28.2c3.29,13.12,11.61,21.42,25,24.32,7.45,1.61,15,1.22,22.42.06a40.56,40.56,0,0,0,12.28-4V87.63c-1,.37-1.78.65-2.58,1a53.12,53.12,0,0,1-23.19,4.06c-7.8-.4-13.78-3.75-17.1-11.1a26.74,26.74,0,0,1-2.19-9.28,14.69,14.69,0,0,1,.15-2Zm-19.11-25c4.77-5.11,10.81-6,17.22-4.28s9.31,6.4,10.5,12.47c.33,1.72.43,3.47.67,5.54h-33.58C1059.51,53.8,1060.72,49.05,1064.25,45.26Z"/><path class="cls-1" d="M1032.18,103.32c-5.22.1-10.21.11-15.46,0v-3.12c0-13.83,0-27.67,0-41.5a34.55,34.55,0,0,0-.81-7.6c-1.39-5.94-4.74-8.91-10.74-9.69a23,23,0,0,0-10.65,1,14.24,14.24,0,0,0-8.67,8.1,31.2,31.2,0,0,0-2.33,10.24c-.19,2.71-.27,5.43-.28,8.15,0,10.39,0,20.79,0,31.19v2.75c-2.08.64-12.9.7-15.29.13V30.32h11.92c.76,3.1,1.5,6.15,2.32,9.52a8,8,0,0,0,1.38-1.11c4.4-6,10.64-8.83,17.77-9.75a36.76,36.76,0,0,1,14.75.93c8.66,2.44,13.63,8.3,15.33,17a47.33,47.33,0,0,1,.88,8.81c.08,15.11,0,30.23,0,45.34C1032.3,101.66,1032.23,102.29,1032.18,103.32Z"/><path class="cls-1" d="M856.32,34l-4.88,11.3c-1-.33-1.78-.59-2.57-.89-5.18-1.93-10.44-3.57-16-3.82a23.14,23.14,0,0,0-9.45,1.15A6.17,6.17,0,0,0,819,47.21a6.33,6.33,0,0,0,2.24,5.57,17.7,17.7,0,0,0,4,2.64c3.91,1.82,7.92,3.4,11.85,5.18,3.78,1.72,7.62,3.35,11.21,5.4a17,17,0,0,1,8.63,11c2.12,9.06-.08,20.13-12.45,24.93a38.09,38.09,0,0,1-9.5,2.35c-9,1-17.88.68-26.57-2.08-.61-.2-1.23-.39-1.81-.64-3.16-1.34-2.64-.89-2.67-4,0-3.35,0-6.7,0-10.44,1.09.43,1.88.72,2.66,1,6.17,2.54,12.52,4.46,19.23,4.64a61.72,61.72,0,0,0,9.29-.7,9.83,9.83,0,0,0,3.55-1.36,7.47,7.47,0,0,0,1.4-12,21.84,21.84,0,0,0-4.94-3.35c-3.29-1.62-6.68-3.05-10.07-4.46-4.73-2-9.43-4-13.63-7a16.68,16.68,0,0,1-7-10.22c-2.05-9.35.93-17.4,10.29-21.83A32.6,32.6,0,0,1,825.48,29a59.14,59.14,0,0,1,30,4.44A7.46,7.46,0,0,1,856.32,34Z"/><path class="cls-1" d="M1501.26,30.26h16.14a12.88,12.88,0,0,1,.59,1.25c5.22,14.93,10.51,29.84,15.6,44.81,1.41,4.14,2.24,8.48,3.34,12.73.07.27.2.54.51,1.38,5.1-20.94,13.37-40.22,19.75-60.16h16c-.09,1.89-24.93,67.66-27.54,73H1529C1519.81,79.08,1510.6,54.85,1501.26,30.26Z"/><path class="cls-1" d="M867.84,103.21V30.29c5.08-.23,10-.1,15.15-.11v73Z"/><path class="cls-1" d="M875.72,1.85c3,0,5.78.83,7.3,3.8a9.6,9.6,0,0,1-.16,9.65c-2.12,3.54-5.64,3.85-9.3,3.41a7,7,0,0,1-6.31-5.1,11,11,0,0,1,0-6.61C868.39,3.51,871.12,1.84,875.72,1.85Z"/></g></g></svg>