<?xml version="1.0" encoding="UTF-8"?>
<svg width="14px" height="17px" viewBox="0 0 14 17" version="1.1" xmlns="http://www.w3.org/2000/svg" xmlns:xlink="http://www.w3.org/1999/xlink">
    <!-- Generator: Sketch 52.6 (67491) - http://www.bohemiancoding.com/sketch -->
    <title>XMLID_799_</title>
    <desc>Created with Sketch.</desc>
    <g id="Symbols" stroke="none" stroke-width="1" fill="none" fill-rule="evenodd">
        <g id="Footer" transform="translate(-1267.000000, -360.000000)" fill="#E92222">
            <g id="Group-2" transform="translate(1131.000000, 344.000000)">
                <g id="Facebook" transform="translate(118.000000, 0.000000)">
                    <path d="M30.1843341,17.7420607 C28.9582253,16.6187024 27.2614244,16 25.4065198,16 C22.5730606,16 20.8303568,17.1084993 19.8673714,18.0383623 C18.6805587,19.1843105 18,20.7058995 18,22.2130682 C18,24.1054181 18.8293556,25.5578663 20.2182217,26.0982166 C20.3114638,26.1346786 20.4052805,26.1530466 20.4972588,26.1530466 C20.7902564,26.1530466 21.0224139,25.9700787 21.1028446,25.6765734 C21.1497242,25.5081903 21.2583632,25.0927978 21.3055875,24.9124617 C21.4067004,24.5563405 21.3250057,24.3850514 21.1045107,24.137055 C20.7028167,23.6834459 20.5157579,23.1470434 20.5157579,22.4489471 C20.5157579,20.3753839 22.1335642,18.1715993 25.1320213,18.1715993 C27.5111618,18.1715993 28.9890762,19.4621345 28.9890762,21.5395358 C28.9890762,22.8504677 28.6932061,24.0645148 28.155814,24.95819 C27.7823857,25.5791404 27.1257263,26.3193462 26.1176422,26.3193462 C25.6817078,26.3193462 25.2901251,26.1484409 25.0430304,25.8504944 C24.809609,25.5688324 24.7326828,25.2049801 24.8265569,24.8257754 C24.9326106,24.3973333 25.0772135,23.9504135 25.2171629,23.5183526 C25.4724155,22.7292384 25.7137077,21.9839334 25.7137077,21.3893014 C25.7137077,20.3722038 25.0585421,19.6888019 24.0835495,19.6888019 C22.8444568,19.6888019 21.8737156,20.8899092 21.8737156,22.4232318 C21.8737156,23.1752261 22.0831227,23.7376728 22.177916,23.9536485 C22.021823,24.5848521 21.0941121,28.3374762 20.9181412,29.045113 C20.8163964,29.4582026 20.2034569,32.7208653 21.2179754,32.981034 C22.357851,33.273333 23.3767358,30.0957117 23.480434,29.7366297 C23.5644841,29.4446048 23.8585733,28.3403822 24.0387955,27.6615861 C24.5890565,28.1674482 25.4750583,28.5094233 26.3371606,28.5094233 C27.9623781,28.5094233 29.4239766,27.8114366 30.4527429,26.5441495 C31.4504859,25.3149692 32,23.6017491 32,21.7203105 C32,20.2494393 31.3381701,18.7994035 30.1843341,17.7420607 Z" id="XMLID_799_"></path>
                </g>
            </g>
        </g>
    </g>
</svg>