<?xml version="1.0" encoding="UTF-8"?>
<svg width="18px" height="18px" viewBox="0 0 18 18" version="1.1" xmlns="http://www.w3.org/2000/svg" xmlns:xlink="http://www.w3.org/1999/xlink">
    <!-- Generator: Sketch 52.6 (67491) - http://www.bohemiancoding.com/sketch -->
    <title>Shape</title>
    <desc>Created with Sketch.</desc>
    <g id="Pages" stroke="none" stroke-width="1" fill="none" fill-rule="evenodd">
        <g id="Product" transform="translate(-263.000000, -392.000000)" fill="#B9B9B9" fill-rule="nonzero">
            <path d="M280.71,408.29 L277.31,404.9 C278.406985,403.502455 279.002209,401.776655 279,400 C279,395.581722 275.418278,392 271,392 C266.581722,392 263,395.581722 263,400 C263,404.418278 266.581722,408 271,408 C272.776655,408.002209 274.502455,407.406985 275.9,406.31 L279.29,409.71 C279.477767,409.899313 279.733362,410.005798 280,410.005798 C280.266638,410.005798 280.522233,409.899313 280.71,409.71 C280.899313,409.522233 281.005798,409.266638 281.005798,409 C281.005798,408.733362 280.899313,408.477767 280.71,408.29 Z M265,400 C265,396.686292 267.686292,394 271,394 C274.313708,394 277,396.686292 277,400 C277,403.313708 274.313708,406 271,406 C267.686292,406 265,403.313708 265,400 Z" id="Shape"></path>
        </g>
    </g>
</svg>