<?xml version="1.0" encoding="UTF-8"?>
<svg width="19px" height="19px" viewBox="0 0 19 19" version="1.1" xmlns="http://www.w3.org/2000/svg" xmlns:xlink="http://www.w3.org/1999/xlink">
    <!-- Generator: Sketch 52.6 (67491) - http://www.bohemiancoding.com/sketch -->
    <title>Shape</title>
    <desc>Created with Sketch.</desc>
    <g id="Pages" stroke="none" stroke-width="1" fill="none" fill-rule="evenodd">
        <g id="Any-Blog/News" transform="translate(-1295.000000, -1180.000000)" fill="#E92222" fill-rule="nonzero">
            <g id="Group" transform="translate(1216.000000, 1174.000000)">
                <path d="M97.5362672,16.0956828 L88.5691844,7.14124575 C88.2513756,6.82330815 87.8250682,6.55377719 87.2899986,6.33230145 C86.7547533,6.11078179 86.2656749,6 85.8224997,6 L80.6052966,6 C80.1704675,6 79.7942364,6.1589688 79.4765155,6.47651106 C79.1587946,6.79422903 79,7.17045665 79,7.60528177 L79,12.8224366 C79,13.2655637 79.110651,13.7545059 79.3322606,14.2897462 C79.5538702,14.8249866 79.8234475,15.2469853 80.1412563,15.5564451 L89.1082073,24.535964 C89.4175822,24.845336 89.7935497,25 90.2369885,25 C90.6714223,25 91.0521778,24.845336 91.3782009,24.535964 L97.5360915,18.3656553 C97.8454663,18.0561515 98,17.6802314 98,17.2370603 C98,16.8022791 97.8454663,16.4218345 97.5362672,16.0956828 Z M84.1481944,11.1481907 C83.8344708,11.4617357 83.456263,11.618596 83.0130878,11.618596 C82.5700883,11.618596 82.1917048,11.4617357 81.8781569,11.1481907 C81.5646091,10.8346018 81.407879,10.4563975 81.407879,10.0132703 C81.407879,9.57009923 81.5646091,9.19176315 81.8781569,8.87834995 C82.1917487,8.56476104 82.5700883,8.4079007 83.0130878,8.4079007 C83.456263,8.4079007 83.8346026,8.56476104 84.1481944,8.87834995 C84.4616105,9.19176315 84.6184723,9.57014315 84.6184723,10.0132703 C84.6184723,10.4563975 84.4617862,10.8346018 84.1481944,11.1481907 Z" id="Shape"></path>
            </g>
        </g>
    </g>
</svg>