<?xml version="1.0" encoding="UTF-8"?>
<svg width="21px" height="21px" viewBox="0 0 21 21" version="1.1" xmlns="http://www.w3.org/2000/svg" xmlns:xlink="http://www.w3.org/1999/xlink">
    <!-- Generator: Sketch 52.6 (67491) - http://www.bohemiancoding.com/sketch -->
    <title>download</title>
    <desc>Created with Sketch.</desc>
    <g id="Pages" stroke="none" stroke-width="1" fill="none" fill-rule="evenodd">
        <g id="Cataloge" transform="translate(-931.000000, -579.000000)" fill="#E92222">
            <g id="Group-5" transform="translate(217.000000, 327.000000)">
                <g id="Group-2-Copy-8" transform="translate(396.000000, 218.000000)">
                    <g id="Group-2-Copy-2">
                        <g id="Group" transform="translate(301.000000, 17.000000)">
                            <g id="download" transform="translate(17.000000, 17.000000)">
                                <path d="M15.938289,9.724 C15.8269132,9.48533333 15.5821614,9.33333333 15.3126594,9.33333333 L12.5626394,9.33333333 L12.5626394,0.666666667 C12.5626394,0.298666667 12.2546371,0 11.8751344,0 L9.12511435,0 C8.74561158,0 8.43760934,0.298666667 8.43760934,0.666666667 L8.43760934,9.33333333 L5.68758931,9.33333333 C5.41808734,9.33333333 5.17333556,9.48666667 5.06195975,9.724 C4.94920893,9.96266667 4.99320925,10.2413333 5.17058554,10.4386667 L9.98312059,15.772 C10.1137465,15.9173333 10.3021229,16 10.5001244,16 C10.6981258,16 10.8865022,15.916 11.0171281,15.772 L15.8296632,10.4386667 C16.0084145,10.2426667 16.0496648,9.96266667 15.938289,9.724 Z" id="Path"></path>
                                <path d="M18.2,15 L18.2,18.6 L2.8,18.6 L2.8,15 L0,15 L0,19.8 C0,20.4636 0.6272,21 1.4,21 L19.6,21 C20.3742,21 21,20.4636 21,19.8 L21,15 L18.2,15 Z" id="Path"></path>
                            </g>
                        </g>
                    </g>
                </g>
            </g>
        </g>
    </g>
</svg>