<?xml version="1.0" encoding="UTF-8"?>
<svg width="8px" height="17px" viewBox="0 0 8 17" version="1.1" xmlns="http://www.w3.org/2000/svg" xmlns:xlink="http://www.w3.org/1999/xlink">
    <!-- Generator: Sketch 52.6 (67491) - http://www.bohemiancoding.com/sketch -->
    <title>Path Copy 3</title>
    <desc>Created with Sketch.</desc>
    <g id="Symbols" stroke="none" stroke-width="1" fill="none" fill-rule="evenodd">
        <g id="Footer" transform="translate(-1151.000000, -360.000000)" fill="#E92222">
            <g id="Group-2" transform="translate(1131.000000, 344.000000)">
                <g id="Facebook-Copy-3">
                    <path d="M27.6689109,16.0033547 L25.7575101,16 C23.6101169,16 22.2223771,17.557401 22.2223771,19.9678921 L22.2223771,21.797356 L20.3005492,21.797356 C20.1344804,21.797356 20,21.9446256 20,22.1262804 L20,24.7769651 C20,24.95862 20.1346338,25.1057218 20.3005492,25.1057218 L22.2223771,25.1057218 L22.2223771,31.7942433 C22.2223771,31.9758982 22.3568575,32.123 22.5229263,32.123 L25.0303651,32.123 C25.1964339,32.123 25.3309143,31.9757304 25.3309143,31.7942433 L25.3309143,25.1057218 L27.5779794,25.1057218 C27.7440481,25.1057218 27.8785286,24.95862 27.8785286,24.7769651 L27.8794486,22.1262804 C27.8794486,22.0390592 27.8477069,21.9555282 27.7914306,21.8938025 C27.7351543,21.8320767 27.6584836,21.797356 27.5787461,21.797356 L25.3309143,21.797356 L25.3309143,20.2464966 C25.3309143,19.5010911 25.4933029,19.1226854 26.3809963,19.1226854 L27.6686042,19.1221822 C27.8345196,19.1221822 27.969,18.9749126 27.969,18.7934255 L27.969,16.3321114 C27.969,16.150792 27.8346729,16.0036901 27.6689109,16.0033547 Z" id="Path-Copy-3"></path>
                </g>
            </g>
        </g>
    </g>
</svg>