<?xml version="1.0" encoding="UTF-8"?>
<svg width="16px" height="16px" viewBox="0 0 16 16" version="1.1" xmlns="http://www.w3.org/2000/svg" xmlns:xlink="http://www.w3.org/1999/xlink">
    <!-- Generator: Sketch 52.6 (67491) - http://www.bohemiancoding.com/sketch -->
    <title>Rectangle 2</title>
    <desc>Created with Sketch.</desc>
    <g id="Symbols" stroke="none" stroke-width="1" fill="none" fill-rule="evenodd">
        <g id="Footer" transform="translate(-1325.000000, -359.000000)" fill="#E92222">
            <g id="Group-2" transform="translate(1131.000000, 344.000000)">
                <g id="Facebook-Copy" transform="translate(177.000000, 0.000000)">
                    <path d="M17,20 L20,20 L20,31 L17,31 L17,20 Z M30.324,20.129 C31.861,20.53 33,21.915 33,23.577 L33,31 L29.423,31 C29.423,31 29.423,26.469 29.423,24 C28.282,21.234 25.578,25 25.578,25 L25.578,31 L22,31 L22,20 L25.578,20 L25.578,22.103 C26.014,21.517 27.337,20 29.423,20 C29.667,20 29.875,20.027 30.065,20.065 C30.114,20.073 30.162,20.082 30.21,20.093 C30.25,20.104 30.286,20.117 30.324,20.129 Z M18.5,18 C17.6715729,18 17,17.3284271 17,16.5 C17,15.6715729 17.6715729,15 18.5,15 C19.3284271,15 20,15.6715729 20,16.5 C20,17.3284271 19.3284271,18 18.5,18 Z" id="Rectangle-2"></path>
                </g>
            </g>
        </g>
    </g>
</svg>