<svg xmlns="http://www.w3.org/2000/svg" viewBox="0 0 363 77.08"><defs><style>.cls-1{fill:#fff;}</style></defs><title>logo</title><g id="Layer_2" data-name="Layer 2"><g id="Layer_1-2" data-name="Layer 1"><path class="cls-1" d="M293.21,31.07c-2.35-4.31-6.34-5.51-10.93-5.56s-9,.81-11.45,5.44c-1.37,2.58-.4,3.72,2.37,3.71,3,0,6,0,9,0s6,0,9,0C293.88,34.62,294.36,33.18,293.21,31.07Zm0,0c-2.35-4.31-6.34-5.51-10.93-5.56s-9,.81-11.45,5.44c-1.37,2.58-.4,3.72,2.37,3.71,3,0,6,0,9,0s6,0,9,0C293.88,34.62,294.36,33.18,293.21,31.07Zm0,0c-2.35-4.31-6.34-5.51-10.93-5.56s-9,.81-11.45,5.44c-1.37,2.58-.4,3.72,2.37,3.71,3,0,6,0,9,0s6,0,9,0C293.88,34.62,294.36,33.18,293.21,31.07Zm0,0c-2.35-4.31-6.34-5.51-10.93-5.56s-9,.81-11.45,5.44c-1.37,2.58-.4,3.72,2.37,3.71,3,0,6,0,9,0s6,0,9,0C293.88,34.62,294.36,33.18,293.21,31.07Zm0,0c-2.35-4.31-6.34-5.51-10.93-5.56s-9,.81-11.45,5.44c-1.37,2.58-.4,3.72,2.37,3.71,3,0,6,0,9,0s6,0,9,0C293.88,34.62,294.36,33.18,293.21,31.07Zm0,0c-2.35-4.31-6.34-5.51-10.93-5.56s-9,.81-11.45,5.44c-1.37,2.58-.4,3.72,2.37,3.71,3,0,6,0,9,0s6,0,9,0C293.88,34.62,294.36,33.18,293.21,31.07Zm-17.56,46q41,0,81.92,0l.51,0A4.73,4.73,0,0,0,363,72.31V4.79A4.75,4.75,0,0,0,357.8.05c-.42,0-.83.08-1.23.08Q189.14.05,21.71.08C21.12,0,20.54,0,20,0h-.41A19.48,19.48,0,0,0,4.06,7.16C1.52,10.1,1.19,13.57.21,16.91A5,5,0,0,0,0,18.28V72.37c0,2.8,2.61,4.2,5.37,4.58M8.1,25.85c0-5.21,2.91-8.11,7.87-8.13s8,2.85,8,8c.06,9,.16,18-.05,26.92-.08,3.63,1,5.08,4.79,4.93,6.3-.26,12.63-.08,18.94-.06a19.4,19.4,0,0,1,4,.22c2,.44,4,1.15,4.17,3.61.15,2.81-2.13,3.8-4.26,4-4.63.34-9.3.24-13.95.3-1.66,0-3.32,0-5,0v-.08c-5.49,0-11,.16-16.46,0-6.22-.21-8-2.1-8-8.22Q8,41.57,8.1,25.85ZM341,58.38c-.11,4.81-2.3,6.87-7.08,7.11-5.62.28-8.48-1.49-8.62-6.51-.32-11.45-.3-22.91-.06-34.35.1-4.77,2.87-6.39,8.84-6.16,4.91.18,6.86,2.09,6.94,7.05.09,5.48,0,11,0,16.43S341.09,52.91,341,58.38ZM290,42.7q-8.49.07-17,0c-2.54,0-3.63.88-3.28,3.6.58,4.49-.36,9-.66,13.42s-3.23,5.61-6.82,5.69-7.75-.67-8-5c-.51-9.28-1.11-18.66.3-27.9,1.59-10.37,10-13.14,18.56-14.53a52.12,52.12,0,0,1,22.78,1.16c9.55,2.72,14,8.62,14.05,18.63,0,3,0,6,0,9,0,3.16,0,6.32,0,9.49,0,6.19-2.55,9.16-7.82,9.24-5.46.07-8-2.95-8.06-9.48,0-3-.09-6,0-9S293,42.68,290,42.7ZM233.92,57.22c0,6.17-2.15,8.35-7.9,8.32s-7.85-2.14-7.88-8.35c0-8.65-.16-17.3.05-25.94.09-3.75-1.29-5.13-4.93-4.8-2.15.2-4.32,0-6.49,0-2.67,0-5.41-.41-5.59-3.59-.2-3.58,2.87-4.16,5.57-4.24,5.81-.16,11.64-.05,17.46-.05s11.64-.12,17.45,0c2.84.07,6.24.43,6.11,4.25-.12,3.54-3.27,3.6-6,3.59-1.17,0-2.34.09-3.49,0-3.23-.31-4.41,1.06-4.36,4.31C234,39.59,234,48.4,233.92,57.22ZM148.66,36.66c-4-3.42-7.64-7.39-11.38-11.18-1.15-1.16-2.61-2.43-1.82-4.3.87-2.09,2.83-2.44,4.93-2.75,4.86-.74,8.31,1.65,11.49,4.72,3,2.9,6,5.79,8.81,8.86,1.89,2.07,3.26,2.2,5.25.09,3.31-3.51,6.84-6.82,10.36-10.14,1.19-1.13,2.5-2.52,4-2.89,3.33-.84,7.35-2,9.73,1.28,2.56,3.55-1.17,5.69-3.26,7.79a110.58,110.58,0,0,1-10.31,9.41c-3.53,2.75-2.9,4.65.12,7.31,4.36,3.85,8.35,8.14,12.53,12.21,1.82,1.78,3.78,3.58,2.59,6.44s-3.88,2-6.08,2.16c-3.47.56-6.06-.82-8.46-3.26C173.29,58.49,169.06,55,165.22,51c-2-2-3.27-2-5.25,0-3.75,3.78-8,7-11.61,11-3.08,3.4-6.65,4-10.8,3.7-1.7-.14-3.45-.21-4.2-2.06a4.66,4.66,0,0,1,1.45-5.43c4.61-4.32,9-8.9,14-12.82C153,42,152.38,39.81,148.66,36.66ZM83,57.32a28.12,28.12,0,0,0,16.23.33c6.31-1.81,8.67-4.79,8.75-11.51.08-7.16,0-14.31,0-21.47,0-4.82,1.74-6.14,7.49-6.21s7.41,1.12,7.53,6.05c.1,4.32,0,8.65,0,13,0,2.49-.19,5,0,7.48,1.23,13.36-6.69,18.38-17.83,20.25a81.77,81.77,0,0,1-29.21-.56c-10.46-2.06-15.84-8.45-16-19.08q-.16-9.73,0-19.47c.09-5.82,2.1-7.66,7.95-7.65s7.84,1.91,7.93,7.71q.17,10.74,0,21.47C75.89,52.71,78.44,55.91,83,57.32ZM349.76,25.63c-3.38.19-5.25-2.46-5.23-6.13,0-3.42,1.81-5.92,5.81-6s6.36,2.19,6.46,5.92S354.77,25.58,349.76,25.63Zm-67.48-.12c-4.73-.05-9,.81-11.45,5.44-1.37,2.58-.4,3.72,2.37,3.71,3,0,6,0,9,0s6,0,9,0c2.71,0,3.19-1.46,2-3.57C290.86,26.76,286.87,25.56,282.28,25.51Zm10.93,5.56c-2.35-4.31-6.34-5.51-10.93-5.56s-9,.81-11.45,5.44c-1.37,2.58-.4,3.72,2.37,3.71,3,0,6,0,9,0s6,0,9,0C293.88,34.62,294.36,33.18,293.21,31.07Zm0,0c-2.35-4.31-6.34-5.51-10.93-5.56s-9,.81-11.45,5.44c-1.37,2.58-.4,3.72,2.37,3.71,3,0,6,0,9,0s6,0,9,0C293.88,34.62,294.36,33.18,293.21,31.07Zm0,0c-2.35-4.31-6.34-5.51-10.93-5.56s-9,.81-11.45,5.44c-1.37,2.58-.4,3.72,2.37,3.71,3,0,6,0,9,0s6,0,9,0C293.88,34.62,294.36,33.18,293.21,31.07Zm0,0c-2.35-4.31-6.34-5.51-10.93-5.56s-9,.81-11.45,5.44c-1.37,2.58-.4,3.72,2.37,3.71,3,0,6,0,9,0s6,0,9,0C293.88,34.62,294.36,33.18,293.21,31.07Z"/><path class="cls-1" d="M291.17,34.64c-3,0-6,0-9,0s-6,0-9,0c-2.77,0-3.74-1.13-2.37-3.71,2.47-4.63,6.72-5.49,11.45-5.44s8.58,1.25,10.93,5.56C294.36,33.18,293.88,34.62,291.17,34.64Z"/><path class="cls-1" d="M291.17,34.64c-3,0-6,0-9,0s-6,0-9,0c-2.77,0-3.74-1.13-2.37-3.71,2.47-4.63,6.72-5.49,11.45-5.44s8.58,1.25,10.93,5.56C294.36,33.18,293.88,34.62,291.17,34.64Z"/></g></g></svg>