<?xml version="1.0" encoding="UTF-8"?>
<svg width="16px" height="14px" viewBox="0 0 16 14" version="1.1" xmlns="http://www.w3.org/2000/svg" xmlns:xlink="http://www.w3.org/1999/xlink">
    <!-- Generator: Sketch 52.6 (67491) - http://www.bohemiancoding.com/sketch -->
    <title>Twitter</title>
    <desc>Created with Sketch.</desc>
    <g id="Symbols" stroke="none" stroke-width="1" fill="none" fill-rule="evenodd">
        <g id="Footer" transform="translate(-1207.000000, -362.000000)" fill="#E92222">
            <g id="Group-2" transform="translate(1131.000000, 344.000000)">
                <g id="Facebook-Copy-2" transform="translate(59.000000, 0.000000)">
                    <path d="M32.999,19.5521841 C32.410147,19.8155833 31.7783161,19.9942176 31.1144611,20.0739684 C31.7923022,19.6642099 32.3111726,19.0142755 32.5570923,18.242208 C31.9212617,18.6216706 31.219422,18.8972092 30.4715983,19.046577 C29.8727589,18.4016831 29.0209676,18 28.0761885,18 C26.2636453,18 24.7940092,19.48357 24.7940092,21.3122955 C24.7940092,21.571657 24.8230009,21.8249752 24.8789975,22.0672096 C22.1516864,21.9289257 19.7332977,20.6098713 18.1147034,18.6055199 C17.8317664,19.0939999 17.6708088,19.6631807 17.6708088,20.2707591 C17.6708088,21.4202837 18.250669,22.4345592 19.1304586,23.0279661 C18.5925828,23.0098097 18.0867051,22.860442 17.6438301,22.6121643 L17.6438301,22.6535439 C17.6438301,24.2582179 18.7755521,25.5974606 20.2761666,25.9022658 C20.0012291,25.9769497 19.7113121,26.0183293 19.4113826,26.0183293 C19.1994478,26.0183293 18.994493,25.9971381 18.7935379,25.9567613 C19.2114209,27.27381 20.423138,28.231558 21.8587892,28.2578161 C20.7360602,29.1459472 19.3204078,29.6737748 17.782802,29.6737748 C17.517877,29.6737748 17.2569255,29.6576241 17,29.6283575 C18.4526436,30.5699812 20.1772184,31.119 22.0307526,31.119 C28.0682413,31.119 31.3684326,26.0708191 31.3684326,21.6927874 L31.3574267,21.2638698 C32.0022502,20.7995895 32.5600986,20.2162636 32.999,19.5521841 Z" id="Twitter"></path>
                </g>
            </g>
        </g>
    </g>
</svg>