<?xml version="1.0" encoding="UTF-8"?>
<svg width="23px" height="32px" viewBox="0 0 23 32" version="1.1" xmlns="http://www.w3.org/2000/svg" xmlns:xlink="http://www.w3.org/1999/xlink">
    <!-- Generator: Sketch 52.3 (67297) - http://www.bohemiancoding.com/sketch -->
    <title>Path</title>
    <desc>Created with Sketch.</desc>
    <g id="Page-1" stroke="none" stroke-width="1" fill="none" fill-rule="evenodd">
        <g id="SFM---Index" transform="translate(-1537.000000, -828.000000)" fill="#E92222">
            <g id="Scroller" transform="translate(1537.000000, 596.000000)">
                <path d="M22.485,253.206 C22.914,252.762 22.914,252.063 22.485,251.619 C22.041,251.19 21.326,251.19 20.898,251.619 L12.851,259.666 L12.851,233.111 C12.851,232.492 12.359,232 11.74,232 C11.121,232 10.613,232.492 10.613,233.111 L10.613,259.666 L2.582,251.619 C2.138,251.19 1.439,251.19 0.995,251.619 C0.566,252.063 0.566,252.762 0.995,253.206 L10.947,263.158 C11.376,263.587 12.09,263.587 12.534,263.158 L22.485,253.206 Z" id="Path"></path>
            </g>
        </g>
    </g>
</svg>