<?xml version="1.0" encoding="UTF-8"?>
<svg width="18px" height="16px" viewBox="0 0 18 16" version="1.1" xmlns="http://www.w3.org/2000/svg" xmlns:xlink="http://www.w3.org/1999/xlink">
    <!-- Generator: Sketch 52.3 (67297) - http://www.bohemiancoding.com/sketch -->
    <title>Path</title>
    <desc>Created with Sketch.</desc>
    <g id="Page-1" stroke="none" stroke-width="1" fill="none" fill-rule="evenodd">
        <g id="Any-Blog/News" transform="translate(-1251.000000, -615.000000)" fill="#FFFFFF">
            <g id="Group-5" transform="translate(1197.000000, 576.000000)">
                <g id="Group-6" transform="translate(54.000000, 33.000000)">
                    <path d="M16.9881953,12.219003 L17.0162929,12.2253066 L4.97151503,12.2253066 L8.75795323,8.33340185 C8.94336783,8.14339177 9.04507512,7.88599265 9.04507512,7.61583613 C9.04507512,7.34567962 8.94336783,7.09008154 8.75795323,6.89962119 L8.16878263,6.29507095 C7.98351438,6.10506087 7.73663638,6 7.47336815,6 C7.20995357,6 6.96292923,6.10431043 6.77766098,6.29432051 L0.286979468,12.9505268 C0.100979508,13.1412873 -0.000727786471,13.3953845 3.9206868e-06,13.6656911 C-0.000727786471,13.9374986 0.100979508,14.1917459 0.286979468,14.3822062 L6.77766098,21.0390128 C6.96292923,21.2288728 7.20980723,21.3333333 7.47336815,21.3333333 C7.73663638,21.3333333 7.98351438,21.2287227 8.16878263,21.0390128 L8.75795323,20.4344626 C8.94336783,20.2447527 9.04507512,19.9914059 9.04507512,19.7212494 C9.04507512,19.4512429 8.94336783,19.2112539 8.75795323,19.0213939 L4.92878333,15.1077265 L17.0016588,15.1077265 C17.5441464,15.1077265 18,14.6281987 18,14.0721266 L18,13.2170812 C18,12.661009 17.530683,12.219003 16.9881953,12.219003 Z" id="Path"></path>
                </g>
            </g>
        </g>
    </g>
</svg>