<?xml version="1.0" encoding="UTF-8"?>
<svg width="50px" height="37px" viewBox="0 0 50 37" version="1.1" xmlns="http://www.w3.org/2000/svg" xmlns:xlink="http://www.w3.org/1999/xlink">
    <!-- Generator: Sketch 52.3 (67297) - http://www.bohemiancoding.com/sketch -->
    <title>Logo</title>
    <desc>Created with Sketch.</desc>
    <g id="Page-1" stroke="none" stroke-width="1" fill="none" fill-rule="evenodd">
        <g id="Intro" transform="translate(-35.000000, -22.000000)" fill="#FFFFFF">
            <g id="Logo" transform="translate(35.000000, 22.000000)">
                <path d="M26.731903,10.147517 C23.1019784,12.5588561 20.285157,12.3569341 17.0819854,9.42711155 C17.0744099,11.4306985 16.1287356,12.9171047 14.7449453,14.140361 C13.3750433,15.35059 11.8296424,16.1178935 9.78425884,15.8339 C11.1579485,17.3645988 11.5442988,19.0789814 11.3978392,20.9535988 C11.2513796,22.8334272 10.6870053,24.5087281 9.10751465,25.7528279 C9.5999218,25.8296885 10.0291998,25.8661648 10.4433269,25.9651717 C12.704612,26.5097096 15.1035187,29.3105626 15.3977004,31.7010581 C15.5744619,33.1392636 15.1603349,34.3442818 14.0252733,35.1936567 C11.7286358,36.9132502 9.16811861,37.4147983 6.43083987,36.6566139 C4.85639956,36.2202019 4.06602295,35.0738063 4.10137526,33.2903794 C4.15945405,30.3931249 5.23769946,27.9935103 7.68205907,26.2178998 C7.36641346,26.1879372 7.11515955,26.1775154 6.86895598,26.137131 C4.2781368,25.7124435 2.24032874,24.3510987 0.763107282,22.144287 C-0.404781478,20.3999418 -0.234332849,18.813226 1.28960416,17.3737178 C3.23145596,15.5394848 5.50662952,14.6510281 8.17699139,15.1200082 C8.25400892,15.1330354 8.33481419,15.1213109 8.53682738,15.1213109 C7.47499555,14.0022724 6.87526889,12.7360263 6.54447229,11.3264807 C6.20483761,9.87394531 6.09373036,8.41750173 6.46114185,6.95063638 C6.91567153,5.13594416 7.93457556,4.20710313 9.74511878,4.22794669 C12.5190124,4.26051474 14.8686783,5.2844545 16.5112981,7.71272895 C16.5441252,7.76092967 16.5857905,7.80391951 16.6792216,7.91465091 C16.7461384,7.36359936 16.7600268,6.87117031 16.8723967,6.40349299 C17.4254078,4.10418806 18.631174,2.23738695 20.5010586,0.865620324 C22.2737244,-0.435799294 23.8873047,-0.276867168 25.3253861,1.39061743 C27.0753254,3.41765339 27.9199931,5.77167266 27.4263233,8.52432496 C27.4162227,8.57773658 27.4414743,8.63766181 27.4642008,8.78096127 C28.6775425,7.5407696 30.1307749,6.9167656 31.7254165,6.60671768 C33.1092069,6.33835688 34.4828966,6.3279351 35.8351224,6.80082331 C37.1835604,7.2724088 37.9082828,8.26899139 37.9853003,9.70459141 C38.1229218,12.2670462 37.2934051,14.4894906 35.53084,16.2963664 C34.136949,17.7254529 32.398373,18.0185654 30.668635,17.0506427 C28.3303323,15.7414067 26.8404851,13.7769014 26.6801371,10.9278477 C26.6637235,10.6712114 26.7117017,10.4145751 26.731903,10.147517 Z" id="Path-2"></path>
                <path d="M26.1470212,24.7142386 C25.4295185,24.374696 24.7911521,23.9746148 24.0960713,23.7811545 C23.7083033,23.6732378 23.1728141,23.8087917 22.7969166,24.0101483 C22.1150252,24.3760121 22.0503972,25.188019 22.6122651,25.7289183 C22.8747339,25.9816012 23.2097444,26.1671651 23.5315655,26.350097 C23.9127388,26.5659303 24.3229288,26.7278053 24.7041021,26.9436386 C26.5572112,27.9872715 27.1810692,29.2006757 26.9172815,31.2142423 C26.6983376,32.8856342 25.2540996,34.4398971 23.5342034,34.8531389 C22.0490782,35.2097902 20.6615546,34.8834082 19.3281074,34.2345923 C19.1988514,34.1714215 19.0432166,33.9924378 19.0405787,33.8634643 C19.0168378,32.8869503 19.0273894,31.9104363 19.0273894,30.8365341 C19.4046059,31.1181702 19.6683936,31.4077026 19.9954905,31.5379922 C20.6932091,31.8169962 21.4120308,32.1196893 22.1466797,32.2144453 C22.8285711,32.3026211 23.4761701,31.6867066 23.6449942,31.0549995 C23.8190941,30.4009193 23.6212533,29.8442274 22.9828869,29.4151929 C22.4566303,29.0624897 21.8881677,28.7716412 21.3394891,28.4531555 C19.3281074,27.2897614 18.6198372,25.7644518 19.1909378,23.8272165 C19.7290648,22.004478 21.5333731,20.8687212 23.6687351,21.0121713 C23.821732,21.0226998 23.9747289,21.0384925 24.1277258,21.0569173 C25.9557751,21.2648542 26.1483401,21.4780554 26.1483401,23.2902654 C26.1470212,23.76931 26.1470212,24.2509867 26.1470212,24.7142386 Z M44.5665338,26.3629368 C45.1850427,24.6463969 45.7524573,23.1011033 46.2916358,21.546296 C46.430128,21.1453623 46.6224036,20.9836297 47.0593935,21.001298 C48.0194269,21.0379936 48.9808049,21.0121708 50,21.0121708 C50,25.6752335 50,30.3002416 50,34.9823317 C49.0009737,34.9823317 47.9885015,34.9823317 46.9625835,34.9823317 C46.9625835,31.9066946 46.9625835,28.8487257 46.9625835,25.7921159 C46.9370364,25.7812431 46.9114892,25.7703704 46.8872867,25.7594976 C46.1383531,27.9952126 45.3880749,30.2309276 44.5705675,32.6718664 C43.7544047,30.2472368 43.0041265,28.0155991 42.2525037,25.7839613 C42.2229228,25.7853204 42.1919974,25.7866795 42.1624165,25.7880386 C42.1624165,28.8473666 42.1624165,31.9080537 42.1624165,35 C41.160701,35 40.1657085,35 39.125,35 C39.125,30.3355781 39.125,25.7119292 39.125,21.0162481 C40.2356269,21.0162481 41.3059162,20.9999389 42.3735163,21.0366345 C42.5120085,21.0420709 42.6975612,21.2989403 42.7647904,21.476982 C43.3537185,23.0358666 43.9211332,24.6029058 44.5665338,26.3629368 Z M36.675,21 C36.675,21.9222048 36.675,22.8211493 36.675,23.7885066 C35.1456633,23.7885066 33.6387755,23.7885066 32.0729592,23.7885066 C32.0729592,24.7709148 32.0729592,25.6876466 32.0729592,26.6700547 C33.4605867,26.6700547 34.8538265,26.6700547 36.3045918,26.6700547 C36.3045918,27.6032056 36.3045918,28.4734167 36.3045918,29.4120407 C34.8945153,29.4120407 33.5026786,29.4120407 32.022449,29.4120407 C32.022449,31.3070758 32.022449,33.137803 32.022449,35 C30.8677296,35 29.8070153,35 28.7,35 C28.7,30.326036 28.7,25.6890149 28.7,21.0013683 C31.3489796,21 33.99375,21 36.675,21 Z" id="Path-3"></path>
            </g>
        </g>
    </g>
</svg>