<?xml version="1.0" encoding="utf-8"?>
<!-- Generator: Adobe Illustrator 22.1.0, SVG Export Plug-In . SVG Version: 6.00 Build 0)  -->
<svg version="1.1" id="Capa_1" xmlns="http://www.w3.org/2000/svg" xmlns:xlink="http://www.w3.org/1999/xlink" x="0px" y="0px"
	 viewBox="0 0 51 51" style="enable-background:new 0 0 51 51;" xml:space="preserve">
<style type="text/css">
	.st0{fill:#B9B9B9;}
</style>
<path class="st0" d="M50.1,45.9l-7.6-8.1C46.1,33.6,48,28.4,48,23C48,10.3,37.7,0,25,0S2,10.3,2,23s10.3,23,23,23
	c4.8,0,9.3-1.4,13.2-4.2l7.7,8.2c0.6,0.6,1.3,0.9,2.2,0.9c0.8,0,1.5-0.3,2.1-0.8C51.2,49,51.3,47.1,50.1,45.9z M25,6
	c9.4,0,17,7.6,17,17s-7.6,17-17,17S8,32.4,8,23S15.6,6,25,6z"/>
</svg>
